<svg xmlns="http://www.w3.org/2000/svg" viewBox="789.197 -266.8 102.966 180.099">
  <defs>
    <style>
      .cls-1 {
        fill: #22b350;
      }

      .cls-1, .cls-10, .cls-11, .cls-12, .cls-13, .cls-14, .cls-15, .cls-2, .cls-3, .cls-4, .cls-5, .cls-6, .cls-7, .cls-8, .cls-9 {
        fill-rule: evenodd;
      }

      .cls-2 {
        fill: #2c2e7c;
      }

      .cls-3 {
        fill: #f15e24;
      }

      .cls-4 {
        fill: #f15c22;
      }

      .cls-5 {
        fill: #f15d23;
      }

      .cls-6 {
        fill: #fff;
      }

      .cls-7 {
        fill: #f5f5f9;
      }

      .cls-8 {
        fill: #f8f8fa;
      }

      .cls-9 {
        fill: #f8f8fb;
      }

      .cls-10 {
        fill: #fdfefe;
      }

      .cls-11 {
        fill: #fcfcfd;
      }

      .cls-12 {
        fill: #f1f2f6;
      }

      .cls-13 {
        fill: #323480;
      }

      .cls-14 {
        fill: #797aaa;
      }

      .cls-15 {
        fill: #373a81;
      }
    </style>
  </defs>
  <g id="nri_media" data-name="nri media" transform="translate(789.092 -266.8)">
    <path id="Path_2370" data-name="Path 2370" class="cls-1" d="M14.36,774.357c-.114-.036-.231-.065-.342-.108a23.551,23.551,0,0,1-5.976-3.317,13.548,13.548,0,0,1-2.7-2.79,6.457,6.457,0,0,1,.277-7.917,8.944,8.944,0,0,1,6.7-3.288,9.257,9.257,0,0,1,4.891,1.19,12.347,12.347,0,0,1,1.285.738,1.049,1.049,0,0,0,1.2.031c.577-.294,1.176-.549,1.777-.792a15.1,15.1,0,0,1,2.547-.846.416.416,0,0,0,.365-.455c0-.649.014-1.3.019-1.948a.3.3,0,0,0-.338-.343c-.278,0-.556-.007-.835-.007q-9.321,0-18.643,0c-1.149,0-1.05.106-1.044-1.045a4.336,4.336,0,0,1,.062-1.287,2.585,2.585,0,0,1,1.357-.113q32.833-.012,65.667-.007c.309,0,.619.007.927-.006.359-.014.443-.093.453-.433s-.006-.68,0-1.02a17.084,17.084,0,0,0-2.349-8.757,43.035,43.035,0,0,0-2.623-4.042,4.333,4.333,0,0,1-.405-.616.372.372,0,0,1,.359-.568c.525-.012,1.051-.005,1.577-.006.495,0,.99.016,1.484,0a.863.863,0,0,1,.8.371c.036.05.08.094.118.143a19.829,19.829,0,0,1,4.431,9.846,38.3,38.3,0,0,1,.328,4.25c0,.154,0,.309.011.463.021.284.1.358.412.372.278.012.557.008.835.008q13.68,0,27.361,0c1.291,0,1.157-.155,1.147,1.118,0,.422.2.949-.14,1.243-.283.248-.774.086-1.171.087q-5.611.008-11.223,0c-.868,0-.86-.014-.859.878,0,.649-.008,1.3.009,1.948.009.362.184.487.552.407.724-.157,1.442-.344,2.167-.5a12.534,12.534,0,0,1,4.79-.1,6.42,6.42,0,0,1,1.421.41,4.233,4.233,0,0,1,2.4,2.438,6.814,6.814,0,0,1,.489,1.971c.071,1.017.148,2.036.157,3.056.023,2.751.013,5.5.01,8.254a.923.923,0,0,1-.1.642,3.71,3.71,0,0,1-1.121-.372c-.433-.162-.853-.363-1.289-.519s-.784-.334-.831-.863c-.017-.183-.218-.2-.37-.125-.276.139-.546.289-.812.447a10.153,10.153,0,0,1-4.306,1.322,10.4,10.4,0,0,1-4.661-.509,6.972,6.972,0,0,1-2.784-1.782,4.041,4.041,0,0,1-1.146-2.851,3.8,3.8,0,0,1,.587-1.927,7.829,7.829,0,0,1,2.12-2.307,11.237,11.237,0,0,1,7.483-2.23,8.6,8.6,0,0,1,3.208.843c.213.1.4.308.714.213a4.7,4.7,0,0,0,.04-1.446.807.807,0,0,0-.2-.4,3.568,3.568,0,0,0-2.659-1.493,15.208,15.208,0,0,0-6.378.878c-.866.331-1.728.668-2.6.991-.289.107-.4.021-.407-.284-.006-.185.01-.372,0-.556a.79.79,0,0,1,.362-.8,1.218,1.218,0,0,0,.53-1.19c-.028-1.3-.006-2.6-.012-3.9,0-.505-.034-.541-.516-.544-1.36-.007-2.72,0-4.081,0H76.7q-.325,0-.649.007c-.233.005-.321.144-.322.36,0,.278,0,.557-.005.835q-.013,8.626-.026,17.251c0,.308,0,.615,0,.882a.317.317,0,0,1-.385.05c-.967-.408-1.932-.823-2.9-1.223a.585.585,0,0,1-.4-.64c.018-.618,0-1.236,0-1.855a.19.19,0,0,0-.144-.2.21.21,0,0,0-.159.071c-.187.205-.365.42-.549.628a13.294,13.294,0,0,1-2.081,1.976,5.366,5.366,0,0,1-5.518.731,12.494,12.494,0,0,1-6.405-5.911,7.157,7.157,0,0,1-.448-1.116,4.965,4.965,0,0,1,.174-3.7,9.974,9.974,0,0,1,3.88-4.607,6.656,6.656,0,0,1,4.812-.874,5.183,5.183,0,0,1,2.462,1.224c1.035.886,1.982,1.863,2.924,2.844.236.245.464.5.7.738a.362.362,0,0,0,.229.112c.111,0,.117-.118.121-.209.005-.124,0-.247,0-.371q0-3.107,0-6.214c0-.154,0-.309-.009-.464a.28.28,0,0,0-.274-.3c-.215-.016-.432-.016-.648-.016H50.959c-.185,0-.371,0-.556.005-.345.018-.416.086-.419.458-.008.989,0,1.979-.005,2.968a.487.487,0,0,0,.357.556c1.268.444,1.014.413,1.037,1.508.007.34,0,.68-.018,1.019a.215.215,0,0,1-.257.2,2.088,2.088,0,0,1-.358-.088,16.162,16.162,0,0,0-3.092-.581,11.641,11.641,0,0,0-5.364.772,3.879,3.879,0,0,0-1.049.585,2.175,2.175,0,0,0-.635.786,1.238,1.238,0,0,0,.642,1.839,4.96,4.96,0,0,0,1.609.41,19.018,19.018,0,0,0,3.425.06c1.352-.1,1.189-.193,1.2,1.115,0,.062,0,.124,0,.185-.02.437-.055.478-.477.5q-1.528.085-3.056.164a9.893,9.893,0,0,0-2.893.6,5.041,5.041,0,0,0-.832.4,1.944,1.944,0,0,0-.184,3.218,5.429,5.429,0,0,0,2.273.99,10.242,10.242,0,0,0,3.961-.1,11.8,11.8,0,0,0,5.912-3.1,14.569,14.569,0,0,0,1.636-1.768c.107-.137.172-.334.391-.347.157.11.115.275.115.422,0,1.236-.014,2.474.01,3.71a.957.957,0,0,1-.54.965,13.607,13.607,0,0,1-4.879,1.671,19.378,19.378,0,0,1-9.479-1.082,11.529,11.529,0,0,1-2.161-1.057,6.052,6.052,0,0,1-1.025-.793,2.865,2.865,0,0,1,.15-4.27,14.544,14.544,0,0,1,1.928-1.281,2.017,2.017,0,0,0,.7-.441c-.032-.22-.23-.261-.375-.35-.29-.177-.589-.339-.878-.518a2.035,2.035,0,0,1-.878-2.655,2.768,2.768,0,0,1,1.032-1.394,6.961,6.961,0,0,1,2.209-1.15,17.719,17.719,0,0,1,3.623-.751c.892-.089,1.783-.184,2.682-.187.36,0,.428-.076.432-.444.009-.8,0-1.607,0-2.411,0-.227-.133-.33-.352-.333s-.433-.007-.649-.007q-8.44,0-16.88,0c-1.151,0-1.049-.089-1.03,1.051.007.464.022.927.035,1.391a.431.431,0,0,0,.289.428c.2.08.4.172.595.259a9.535,9.535,0,0,1,1.765,1.014,5.565,5.565,0,0,1,2.285,3.479,9.361,9.361,0,0,1-.436,5.73,10.366,10.366,0,0,1-2.091,3.152,15.425,15.425,0,0,1-3.94,2.9.845.845,0,0,1-1.093-.1c-.068-.063-.146-.115-.213-.179q-1.4-1.352-2.8-2.709a.369.369,0,0,1-.1-.236c0-.125.123-.121.209-.131a12.459,12.459,0,0,0,5.223-2.03,12.072,12.072,0,0,0,2.283-1.885A7.881,7.881,0,0,0,31.1,765.17a5.06,5.06,0,0,0,.718-2.649,2.531,2.531,0,0,0-.97-2.015,4.023,4.023,0,0,0-2.1-.917,7.442,7.442,0,0,0-7.244,2.788,10.43,10.43,0,0,0-1.772,3.645c-.084.294-.166.587-.252.894a1.505,1.505,0,0,1-.3-.046c-1.146-.461-2.292-.922-3.434-1.393-.332-.137-.371-.218-.351-.563a4.915,4.915,0,0,1,.352-1.529,11.809,11.809,0,0,1,.957-1.9c.131-.21.265-.419.377-.638a.454.454,0,0,0-.15-.575,1.712,1.712,0,0,0-.674-.294,6.51,6.51,0,0,0-6.97,2.52,4.971,4.971,0,0,0-.439,5.5,11.507,11.507,0,0,0,2.166,2.994c.767.762,1.57,1.488,2.358,2.229q.537.505,1.076,1.009Zm44.865-7.048a4.407,4.407,0,0,0,.724,2.258A3.631,3.631,0,0,0,64.51,771.2a6.422,6.422,0,0,0,1.643-.844,13.633,13.633,0,0,0,4.28-4.793,8.045,8.045,0,0,0,.446-1.016,2.536,2.536,0,0,0-.479-2.6,5.227,5.227,0,0,0-2.461-1.743,4.413,4.413,0,0,0-3.078.031,10.651,10.651,0,0,0-4.135,2.728A5.844,5.844,0,0,0,59.225,767.309Zm32.531,4.171a13.123,13.123,0,0,0,7.424-2.509,6.374,6.374,0,0,0,1.469-1.4.716.716,0,0,0-.052-1.006,2.51,2.51,0,0,0-1.09-.677c-.611-.212-1.235-.39-1.856-.57a7.112,7.112,0,0,0-3.2-.2,8.815,8.815,0,0,0-5.743,3.409,3.711,3.711,0,0,0-.57,1.053.965.965,0,0,0,.164.954,2.054,2.054,0,0,0,1.076.683A7.2,7.2,0,0,0,91.756,771.48Z" transform="translate(-2.923 -594.258)"/>
    <path id="Path_2371" data-name="Path 2371" class="cls-2" d="M77.973,409.435a34.9,34.9,0,1,1,42.643,33.957,34.439,34.439,0,0,1-10.5.751,34.894,34.894,0,0,1-31.017-25.9A35.964,35.964,0,0,1,77.973,409.435Zm24.973-28.7.006,0c-.131,0-.243.03-.224.2a1.905,1.905,0,0,1-.7,1.723.179.179,0,0,0-.2.123l-.368.089-.717-.035a3.311,3.311,0,0,1-.868-.631c-.241-.21-.241-.21-.578.047l-.039.015a.334.334,0,0,0-.325.169,2.826,2.826,0,0,0-.984.534,1.243,1.243,0,0,0-.7.4,5.005,5.005,0,0,0-1.372.875l-.057-.013-.021.06-.057.037c-.217.1-.171.213-.025.337.025.182.062.363.073.546a1.455,1.455,0,0,1-.63,1.35c-.124.088-.257.165-.386.247a.123.123,0,0,0-.179.059l-.546.009a.438.438,0,0,0-.352-.118l-.487-.288c-.108-.135-.2-.147-.282.027a5.437,5.437,0,0,0-1.273,1.159,2.092,2.092,0,0,0-.716.714,7.043,7.043,0,0,0-1.085,1.122.333.333,0,0,0-.019.491,1.354,1.354,0,0,1,.1.152,1.516,1.516,0,0,1-.74,2.221c-.115.044-.23.086-.346.128l-.355,0-.36-.055c-.307-.225-.307-.225-.52.011a6.1,6.1,0,0,0-1.011,1.619,10.885,10.885,0,0,0-1.273,2.316,6.079,6.079,0,0,1,.488.472,1.417,1.417,0,0,1,.24,1.551,1.285,1.285,0,0,1-1.271.9c-.66-.058-.84.268-.972.792a11.989,11.989,0,0,0-.422,1.6,10.335,10.335,0,0,0-.462,1.778c-.075.3-.051.553.3.659a.64.64,0,0,1,.164.084,1.45,1.45,0,0,1,.686,1.5A1.406,1.406,0,0,1,83,406.937c-.088.026-.18.042-.27.062a.37.37,0,0,0-.324.382,14.458,14.458,0,0,0-.007,2.3,6.211,6.211,0,0,0,.093,2.033c-.019.207.116.178.244.159,1.554.567,1.823,1.6.741,2.855a.2.2,0,0,0-.215.133.133.133,0,0,0-.154.049c-.107-.009-.181.016-.155.147a5.822,5.822,0,0,0,.4,2.041.386.386,0,0,0,.128.372,8.15,8.15,0,0,0,.548,1.933.277.277,0,0,0,.357.193l.36-.071a.1.1,0,0,0,.168.019,1.757,1.757,0,0,0,.157.1c1.318.633,1.5,1.638.48,2.694-.144.149-.228.268-.117.473a9.9,9.9,0,0,0,.855,1.526.6.6,0,0,0,.234.409,10.606,10.606,0,0,0,1.018,1.688.383.383,0,0,0,.543.138c.081-.038.164-.072.246-.108l.692.016a4.11,4.11,0,0,1,.558.316,1.469,1.469,0,0,1,.45,1.814A2.772,2.772,0,0,1,89.8,429a.316.316,0,0,0,.041.417A21.565,21.565,0,0,0,93,432.488c.031.093.068.087.11.007l.961-.428.346-.007a2.935,2.935,0,0,1,.355.105,1.415,1.415,0,0,1,.974,1.764.763.763,0,0,0,.454,1.025,5.183,5.183,0,0,0,.963.537,1.761,1.761,0,0,0,.8.479,9.566,9.566,0,0,0,1.733.921l.872-.736a.452.452,0,0,0,.359-.128l.555,0,.065.057.081-.022a1.705,1.705,0,0,1,1.082,1.849c-.037.279.207.339.443.341.034.07.082.107.161.063a.53.53,0,0,0,.4.12.364.364,0,0,0,.356.129l.338.079a13.937,13.937,0,0,0,2.656.7c.216.051.33-.068.414-.262a1.579,1.579,0,0,1,1.258-.963,3.256,3.256,0,0,1,.9.137.174.174,0,0,0,.181.127,1.918,1.918,0,0,1,.6,1.179c0,.1.081.149.175.17a3.051,3.051,0,0,0,1.446.12,1.518,1.518,0,0,0,.763.006,10.659,10.659,0,0,0,2.117-.027c.234-.015.42-.093.444-.368a1.184,1.184,0,0,1,.052-.272,1.478,1.478,0,0,1,1.275-1.06,1.459,1.459,0,0,1,1.431.665,3.264,3.264,0,0,1,.221.4.263.263,0,0,0,.306.145,9.07,9.07,0,0,0,2.129-.549.523.523,0,0,0,.387-.073.166.166,0,0,0,.21-.085l.344-.078a.366.366,0,0,0,.346-.126.548.548,0,0,0,.419-.133l.084.016.06-.065c.238,0,.455-.07.42-.348a1.694,1.694,0,0,1,.9-1.751.459.459,0,0,0,.357-.125l.551,0c.038.064.087.087.155.041a4.35,4.35,0,0,1,1.045.847,12.816,12.816,0,0,0,1.773-.962,1.053,1.053,0,0,0,.551-.326,1.833,1.833,0,0,0,.781-.485l.066.007.028-.063c.235-.135.475-.261.7-.408a.3.3,0,0,0,.133-.39,1.686,1.686,0,0,1,.345-1.854.145.145,0,0,0,.157-.127l.242-.141.076.014.05-.06.408-.063.352.014.243.045.035.052.05-.027.292.161a.09.09,0,0,0,.117.087.248.248,0,0,0,.387.07,7.274,7.274,0,0,0,1.305-1.242,1.318,1.318,0,0,0,.567-.566,8.409,8.409,0,0,0,1.1-1.1c.236-.238.215-.422.043-.72a1.483,1.483,0,0,1,.648-2.241,2.46,2.46,0,0,1,.252-.112l.7,0c.575.2.591.215.838-.169a7.317,7.317,0,0,0,.927-1.584l-.006,0a10.609,10.609,0,0,0,1.214-2.177,5.343,5.343,0,0,1-.426-.384,1.466,1.466,0,0,1-.038-2.077c.1-.118.213-.22.32-.329h.078l.043-.067.243-.075c.264.006.528.022.792.013.072,0,.141-.08.212-.123a7.548,7.548,0,0,0,.627-2.033l.107-.341a6.4,6.4,0,0,0,.425-2.074c.038-.129-.027-.156-.137-.139a.161.161,0,0,0-.168-.052.178.178,0,0,0-.2-.123,3.827,3.827,0,0,1-.313-.33,1.487,1.487,0,0,1,.536-2.364,3.949,3.949,0,0,1,.514-.177c.121.027.2,0,.2-.144a5.62,5.62,0,0,0,.117-2.046,11.633,11.633,0,0,0,.027-1.658c.013-.592-.016-1.136-.813-1.145a1.5,1.5,0,0,1-.375-2.571,1.8,1.8,0,0,1,.4-.228.361.361,0,0,0,.249-.434,9.156,9.156,0,0,0-.56-2.127,8.378,8.378,0,0,0-.609-2.1c-.052-.147-.2-.106-.317-.081l-.736-.032-.025-.006-.046-.055-.066.019c-.122-.094-.251-.179-.364-.282a1.466,1.466,0,0,1-.314-2,4.124,4.124,0,0,1,.271-.375.118.118,0,0,0,.137-.113l.027-.017c.257-.107.157-.233.018-.36a4.749,4.749,0,0,0-.762-1.464.528.528,0,0,0-.23-.4,8.029,8.029,0,0,0-1.17-1.854c-.2-.2-.213-.2-.476.014l-.344.058h-.358c-1.366-.519-1.664-1.289-.991-2.558a.491.491,0,0,0,.027-.088c.015-.019.046-.04.044-.058a.583.583,0,0,0-.038-.121,6.209,6.209,0,0,0-1.388-1.522.765.765,0,0,0-.412-.413,10.57,10.57,0,0,0-1.234-1.2.356.356,0,0,0-.552.007c-.09.08-.2.144-.294.216a.459.459,0,0,0-.366.128l-.545,0a.1.1,0,0,0-.163-.044,5.138,5.138,0,0,1-.53-.353,1.339,1.339,0,0,1-.486-1.474c.2-.622.141-.639-.431-1.013-.151-.1-.32-.171-.48-.255-.013-.074-.053-.109-.13-.088a1.07,1.07,0,0,0-.558-.325.9.9,0,0,0-.57-.332,4.739,4.739,0,0,0-1.454-.76.171.171,0,0,0-.209-.119.241.241,0,0,0-.32.076c-.145.157-.288.317-.432.475a.185.185,0,0,0-.206.127l-.362.089-.718-.03a1.74,1.74,0,0,1-1.125-1.719c.121-.294.114-.31-.176-.377h0c-.037-.077-.091-.116-.179-.082l-.374-.1a.377.377,0,0,0-.376-.137l-.194-.043a.369.369,0,0,0-.359-.126l-.375-.079a.656.656,0,0,0-.564-.16l-.009,0a.69.69,0,0,0-.537-.146l-.349-.058a.408.408,0,0,0-.39-.107l-.385-.058c-.295-.116-.309-.11-.387.172a2.136,2.136,0,0,1-1.1.978l-.918-.034a2.066,2.066,0,0,1-1.068-1.485c.017-.2-.1-.165-.224-.136a8.507,8.507,0,0,0-2.048-.046.477.477,0,0,0-.372,0,7.49,7.49,0,0,0-1.862.049c-.128-.029-.258-.061-.277.135a1.823,1.823,0,0,1-1.207,1.523l-.724.005a2.133,2.133,0,0,1-1.21-1.158c-.026-.11-.07-.064-.114-.013a1.218,1.218,0,0,0-.749.117.146.146,0,0,0-.206.058.111.111,0,0,0-.145.026,1.044,1.044,0,0,0-.735.178l-.189.037a2.389,2.389,0,0,0-1.122.329l-.183.04a.387.387,0,0,0-.39.139l-.358.095A.142.142,0,0,0,102.946,380.733Z" transform="translate(-62.984 -302.264)"/>
    <path id="Path_2372" data-name="Path 2372" class="cls-3" d="M42.579,201.9a20.536,20.536,0,0,1,1.94-2.086c1.249-1.2,2.495-2.4,3.632-3.708a18.165,18.165,0,0,0,4.163-8.37,19.767,19.767,0,0,0,.119-8.009,10.858,10.858,0,0,0-.341-1.249,7.434,7.434,0,0,0-5.706-5.147,11.823,11.823,0,0,0-8.7,1.176A18,18,0,0,0,31.623,180a25.068,25.068,0,0,0-4.056,9.572,24.734,24.734,0,0,0-.449,4.977q0,5.425,0,10.851c0,.278,0,.557-.008.834-.009.234-.141.3-.378.189-.14-.065-.276-.14-.412-.211l-5.5-2.875c-.11-.057-.216-.121-.327-.176a.51.51,0,0,1-.323-.509c.007-.216,0-.433,0-.649q0-14.792,0-29.584c0-1.209-.111-1.095,1.091-1.1q2.55,0,5.1,0c.216,0,.433,0,.649.005.3.014.395.1.41.377.012.216.008.432.008.649,0,1.02,0,2.04,0,3.061,0,.185.008.37.023.555a.192.192,0,0,0,.285.122c.155-.1.306-.209.452-.322.588-.453,1.18-.9,1.758-1.365a23.3,23.3,0,0,1,5.55-3.326,15.008,15.008,0,0,1,13.734.711,18.284,18.284,0,0,1,8.546,10.446,19.843,19.843,0,0,1,.837,9.24,25.768,25.768,0,0,1-4.254,10.961,37.8,37.8,0,0,1-3.064,3.956c-.142.162-.293.317-.45.466a.287.287,0,0,1-.342.043c-.11-.055-.218-.116-.323-.182q-3.655-2.285-7.309-4.572A3.716,3.716,0,0,1,42.579,201.9Z" transform="translate(-16.345 -136.944)"/>
    <path id="Path_2373" data-name="Path 2373" class="cls-4" d="M52.408,122.1q-25.083,0-50.165,0c-1.491,0-1.272.177-1.286-1.266-.01-1.113-.005-2.225,0-3.338,0-.378.071-.446.415-.459.278-.011.556-.005.834-.005h41.82l43.3-.006q7.789,0,15.578.007c1.112,0,1-.093,1,.985,0,1.051,0,2.1,0,3.153,0,1.013.075.922-.971.928-.216,0-.433,0-.649,0H52.408A.006.006,0,0,0,52.408,122.1Z" transform="translate(-0.846 -94.413)"/>
    <path id="Path_2374" data-name="Path 2374" class="cls-3" d="M265.335,207.1a.484.484,0,0,1-.5-.057c-2.388-1.232-4.773-2.47-7.166-3.693-.339-.173-.553-.368-.494-.78a3.948,3.948,0,0,0,0-.556q0-14.464,0-28.929c0-1.277-.156-1.132,1.132-1.136,2.009-.006,4.018,0,6.027,0,.247,0,.494,0,.741.014a.271.271,0,0,1,.281.294c.009.247.01.494.012.741,0,.556,0,1.113.007,1.669,0,.242.145.312.365.182.745-.439,1.475-.906,2.233-1.322a26.871,26.871,0,0,1,7.052-2.755,14.6,14.6,0,0,1,12.631,2.956,10.169,10.169,0,0,1,2.05,2.132,7.392,7.392,0,0,1,1.41,3.959,5.775,5.775,0,0,1-.727,3.116,9.309,9.309,0,0,1-1.463,2.022,28.684,28.684,0,0,1-4.872,4.125c-.128.086-.259.169-.394.244-.973.543-.747.58-1.486-.248q-2.5-2.8-4.981-5.621c-.123-.139-.246-.278-.362-.422-.249-.306-.216-.429.146-.471a10.032,10.032,0,0,0,6.794-3.926,5.427,5.427,0,0,0,.962-1.888,2.453,2.453,0,0,0-.527-2.413,5.5,5.5,0,0,0-5.236-1.905,9.528,9.528,0,0,0-3.381,1.215,20.8,20.8,0,0,0-6.847,6.271,18.676,18.676,0,0,0-2.878,5.777,14.242,14.242,0,0,0-.536,3.841q.009,8.3,0,16.6C265.335,206.466,265.335,206.8,265.335,207.1Z" transform="translate(-207.548 -137.459)"/>
    <path id="Path_2375" data-name="Path 2375" class="cls-5" d="M479.186,206.286c-.208.07-.357-.065-.513-.151-2-1.1-4-2.211-6.01-3.3a.8.8,0,0,1-.493-.887,3.983,3.983,0,0,0,0-.463q0-15.108,0-30.216c0-1.356-.151-1.184,1.174-1.19,1.638-.008,3.275,0,4.912,0,.247,0,.494,0,.74.021a.244.244,0,0,1,.23.242c.016.215.022.431.022.647q0,17.286,0,34.572A1.479,1.479,0,0,1,479.186,206.286Z" transform="translate(-380.999 -137.212)"/>
    <path id="Path_2376" data-name="Path 2376" class="cls-3" d="M441.722.008a3.138,3.138,0,0,1,1.2.178c1.559.5,3.107,1.027,4.613,1.674a14.427,14.427,0,0,1,2.825,1.579,5.287,5.287,0,0,1,1.993,2.6c.441,1.285.863,2.576,1.249,3.878a37.965,37.965,0,0,0,2.259,5.971,4.22,4.22,0,0,1,.31,2.082.365.365,0,0,1-.367.352c-.337.03-.678.032-1.017.03a1.118,1.118,0,0,1-1.073-.715c-.877-1.737-1.8-3.45-2.713-5.169-.217-.409-.455-.807-.69-1.206A4.165,4.165,0,0,0,447.725,9.3c-.744-.2-1.487-.414-2.234-.607a3.484,3.484,0,0,1-2.69-2.65,17.684,17.684,0,0,0-1.921-4.7,1.4,1.4,0,0,1-.221-.7c-.015-.556.038-.623.619-.637C441.4.005,441.525.008,441.722.008Z" transform="translate(-355.582 0)"/>
    <path id="Path_2378" data-name="Path 2378" class="cls-1" d="M404.346,859.055c-.174.077-.3-.026-.434-.1-.813-.443-1.614-.905-2.436-1.329a.749.749,0,0,1-.449-.813c.025-.369.005-.74.005-1.111q0-6.434,0-12.868c0-1.018-.068-.925.965-.929.586,0,1.173-.006,1.759,0,.637.007.637.012.648.691,0,.093,0,.185,0,.278q0,7.684,0,15.368A1.99,1.99,0,0,1,404.346,859.055Z" transform="translate(-323.608 -679.214)"/>
    <path id="Path_2387" data-name="Path 2387" class="cls-1" d="M386.514,760.808a4.134,4.134,0,0,1,.511.095A17.514,17.514,0,0,1,389.872,762a3.321,3.321,0,0,1,1.859,2.177c.227.864.52,1.712.813,2.557.182.524.416,1.029.631,1.541a1.609,1.609,0,0,1,.193.707c-.011.207.069.469-.2.554a.782.782,0,0,1-.86-.163,2.248,2.248,0,0,1-.273-.48c-.421-.79-.855-1.573-1.259-2.372a2.4,2.4,0,0,0-1.764-1.356,7.336,7.336,0,0,1-.89-.253,1.545,1.545,0,0,1-1.066-1.07,10.959,10.959,0,0,0-1.011-2.479.72.72,0,0,1-.055-.175.285.285,0,0,1,.215-.347C386.293,760.825,386.386,760.82,386.514,760.808Z" transform="translate(-311.47 -613.789)"/>
    <path id="Path_2391" data-name="Path 2391" class="cls-6" d="M129.773,591.648l-.961.428a.83.83,0,0,0-.11-.007A21.576,21.576,0,0,1,125.545,589a.316.316,0,0,1-.041-.417,2.793,2.793,0,0,0,.235-.394,1.469,1.469,0,0,0-.45-1.813,4.107,4.107,0,0,0-.558-.316.61.61,0,0,0-.692-.016c-.082.036-.165.071-.246.109a.383.383,0,0,1-.543-.139,10.61,10.61,0,0,1-1.018-1.688,1.44,1.44,0,0,0,.668-.4c.271-.133.549-.256.813-.4a14.519,14.519,0,0,0,1.99-1.072c.085-.035.173-.065.256-.106q6.077-3.049,12.151-6.1a6.59,6.59,0,0,0,.933-.6c1.241-.916,2.474-1.844,3.71-2.766.173-.129.347-.258.527-.377a.185.185,0,0,1,.248.02c.1.112.2.234.3.352a.263.263,0,0,1-.021.4c-.137.123-.283.238-.428.352-1.189.933-2.377,1.869-3.571,2.8a8.108,8.108,0,0,0-1.081,1.007c-2.383,2.671-4.777,5.332-7.154,8.007a28.3,28.3,0,0,0-2,2.3,3.35,3.35,0,0,0-.752.792,4.517,4.517,0,0,0-1.272,1.508l-.044.042.035-.052a5.181,5.181,0,0,0,1.489-1.289,5.128,5.128,0,0,0,.978-.92l1.224-.946c.652-.047.672-.065.728-.659a3.328,3.328,0,0,1,.942-.825c.652-.048.672-.066.728-.659.15-.153.293-.316.452-.458,1.383-1.236,2.741-2.5,4.162-3.692a27.434,27.434,0,0,0,4.554-4.851,12,12,0,0,1,1.407-1.715l.6.629c-.15.231-.287.47-.451.69-.755,1.013-1.51,2.026-2.279,3.028a9.221,9.221,0,0,0-.922,1.489c-1.174,2.339-2.362,4.672-3.539,7.011q-1.536,3.053-3.059,6.113a1.987,1.987,0,0,0-.53,1.149l.01-.015c-.211.056-.2.224-.2.387l-.017.018a.358.358,0,0,0-.366.2.681.681,0,0,1-.59.35,5.176,5.176,0,0,1-.963-.537.763.763,0,0,1-.454-1.024,1.415,1.415,0,0,0-.974-1.764,2.956,2.956,0,0,0-.355-.1A.2.2,0,0,0,129.773,591.648Z" transform="translate(-98.689 -461.845)"/>
    <path id="Path_2392" data-name="Path 2392" class="cls-7" d="M313.177,513.654a9.149,9.149,0,0,1,.56,2.127.361.361,0,0,1-.249.434,1.816,1.816,0,0,0-.4.228,1.5,1.5,0,0,0,.375,2.571c.8.009.826.553.813,1.145a11.6,11.6,0,0,1-.027,1.658l-2.4-.021,1.2-.286c-1-.049-1.865-.085-2.729-.135-2.715-.157-5.429-.322-8.143-.478-1.512-.087-3.029-.108-4.534-.257a16.411,16.411,0,0,0-3.782.162c-1.164.152-2.33.288-3.5.424-.434.051-.5-.01-.549-.4-.048-.43-.02-.494.393-.558,1.129-.175,2.26-.342,3.393-.491a18.187,18.187,0,0,0,3.966-.89c1.332-.49,2.7-.894,4.045-1.339q4.485-1.481,8.969-2.967a5.779,5.779,0,0,0,2.036-.727C312.75,513.618,312.969,513.654,313.177,513.654Z" transform="translate(-233.881 -414.393)"/>
    <path id="Path_2393" data-name="Path 2393" class="cls-8" d="M100.681,522.477a14.463,14.463,0,0,1,.007-2.3.37.37,0,0,1,.324-.382c.09-.02.181-.036.27-.062a1.405,1.405,0,0,0,1.089-1.233,1.45,1.45,0,0,0-.686-1.5.641.641,0,0,0-.164-.084c-.353-.106-.377-.363-.3-.659a10.337,10.337,0,0,1,.462-1.778l.544.057a4.393,4.393,0,0,0,1.419.491q7.477,2.464,14.955,4.923a6.635,6.635,0,0,0,1.079.258c1.069.161,2.142.295,3.212.447.642.091,1.283.194,1.922.3a.581.581,0,0,1,.244.107c.1.072.083.53-.015.706a.294.294,0,0,1-.316.138c-1.166-.135-2.335-.25-3.5-.414a19.753,19.753,0,0,0-4.15-.177c-3.822.263-7.65.434-11.476.646-1.239.069-2.477.153-3.773.234.335.144.668.056.926.251Z" transform="translate(-81.267 -415.056)"/>
    <path id="Path_2394" data-name="Path 2394" class="cls-8" d="M266.137,609.121a9.077,9.077,0,0,1-2.129.549.263.263,0,0,1-.305-.145,3.248,3.248,0,0,0-.221-.4,1.459,1.459,0,0,0-1.431-.665,1.478,1.478,0,0,0-1.275,1.06,1.191,1.191,0,0,0-.052.272c-.024.275-.21.353-.444.368a10.673,10.673,0,0,1-2.117.027q.013-.283.025-.564a2.531,2.531,0,0,0,.149-1.418q.292-4.948.584-9.9c.1-1.6.2-3.206.29-4.809a11.226,11.226,0,0,0,.029-2.035q-.309-2.528-.624-5.055a2.05,2.05,0,0,1-.025-.276.263.263,0,0,1,.215-.262c.119-.032.242-.047.363-.072.235-.047.34.083.39.286a2.716,2.716,0,0,1,.053.272c.141,1.009.293,2.017.419,3.027a19.556,19.556,0,0,0,1,4.41c.449,1.215.82,2.458,1.229,3.688q1.476,4.435,2.955,8.87a7.394,7.394,0,0,0,.643,1.956c.021.046.093.068.142.1C266.221,608.61,266.117,608.877,266.137,609.121Z" transform="translate(-208.353 -472.587)"/>
    <path id="Path_2395" data-name="Path 2395" class="cls-9" d="M106.593,482.683l-.545-.057a11.908,11.908,0,0,1,.422-1.6c.132-.525.312-.85.972-.792a1.285,1.285,0,0,0,1.271-.9,1.417,1.417,0,0,0-.24-1.551,6.053,6.053,0,0,0-.488-.472A10.87,10.87,0,0,1,109.259,475c.111.262.443.28.573.52.058.1.091.237.177.3a12.76,12.76,0,0,0,2.04,1.292c.074.056.145.115.222.166q5.854,3.831,11.711,7.657a6.657,6.657,0,0,0,.979.517c1.415.616,2.837,1.218,4.256,1.825a6.035,6.035,0,0,1,.592.263.271.271,0,0,1,.122.389c-.041.083-.062.175-.1.26a.313.313,0,0,1-.438.208q-.346-.132-.69-.268-2.065-.823-4.128-1.649a6.624,6.624,0,0,0-1.149-.346c-3.81-.783-7.617-1.579-11.426-2.366-1.269-.262-2.542-.505-3.813-.757A3.42,3.42,0,0,0,106.593,482.683Z" transform="translate(-85.634 -383.208)"/>
    <path id="Path_2396" data-name="Path 2396" class="cls-9" d="M223.149,609.655q-.013.282-.025.565a1.524,1.524,0,0,1-.763-.006,4.142,4.142,0,0,0-1.446-.12c-.093-.021-.171-.074-.175-.17a1.918,1.918,0,0,0-.6-1.179l-.181-.127a3.249,3.249,0,0,0-.9-.137,1.58,1.58,0,0,0-1.258.963c-.084.195-.2.313-.414.262a13.943,13.943,0,0,1-2.656-.7c.385,0,.547-.276.7-.564.07-.057.176-.1.2-.173a10.017,10.017,0,0,0,.605-1.9q2.342-7.068,4.681-14.136a4.882,4.882,0,0,0,.185-.807c.191-1.281.372-2.564.557-3.845.071-.488.139-.977.218-1.464.037-.228.157-.309.389-.285.461.046.607.131.541.632q-.194,1.468-.346,2.94a18.554,18.554,0,0,0-.27,3.407c.07.861.113,1.724.162,2.586.157,2.8.3,5.607.466,8.41.086,1.478.2,2.955.3,4.432A8.663,8.663,0,0,0,223.149,609.655Z" transform="translate(-173.315 -472.625)"/>
    <path id="Path_2397" data-name="Path 2397" class="cls-6" d="M303.436,448.693l.344-.058.476-.014a8.026,8.026,0,0,1,1.17,1.854.8.8,0,0,0-.677.311,11.545,11.545,0,0,0-1.882,1c-.112.05-.227.1-.336.151q-6.489,3.256-12.978,6.51a6.691,6.691,0,0,0-1.014.64q-1.853,1.385-3.707,2.768a3.159,3.159,0,0,1-.533.362c-.17.079-.279-.051-.334-.213q-.015-.312-.03-.624a6.3,6.3,0,0,1,1.333-1.04l.186-.154a27.163,27.163,0,0,1,2.639-2.064.2.2,0,0,0,.128-.108q.5-.549,1-1.1l2.81-3.079a.205.205,0,0,0,.109-.121c.194-.237.379-.482.582-.711q2.121-2.378,4.247-4.751c.757-.85,1.5-1.71,2.253-2.565a4.058,4.058,0,0,0,1.012-1.1l.5-.24a6.212,6.212,0,0,1,1.388,1.522c-.022.017-.064.039-.062.049a.789.789,0,0,0,.056.129.469.469,0,0,1-.027.088c-.673,1.269-.375,2.039.991,2.558C303.2,448.855,303.317,448.853,303.436,448.693Z" transform="translate(-229.145 -358.482)"/>
    <path id="Path_2398" data-name="Path 2398" class="cls-6" d="M275.028,403.147l.375.079a.362.362,0,0,0,.359.126l.194.042a.364.364,0,0,0,.376.137l.374.1.179.082h0a.378.378,0,0,0,.176.377,1.74,1.74,0,0,0,1.125,1.719.528.528,0,0,0,.718.03l.362-.089.206-.127c.144-.159.287-.318.432-.475a.241.241,0,0,1,.32-.076l.209.12a4.741,4.741,0,0,1,1.454.76.875.875,0,0,1-.213.678.659.659,0,0,0-.145.6l-.007.006a.251.251,0,0,0-.194.385l.007-.01a.187.187,0,0,0-.232.077,2.785,2.785,0,0,0-.512.857c-.156.228-.316.454-.469.685-2.117,3.213-4.209,6.443-6.36,9.634a26.491,26.491,0,0,0-2.824,5.273c-.321.832-.7,1.643-1.056,2.46-.163.37-.194.373-.64.188a1.09,1.09,0,0,1-.157-.1l-.134-.146a1.5,1.5,0,0,1,.236-.781c.554-1.4,1.131-2.8,1.683-4.2a7.65,7.65,0,0,0,.38-1.232q1.518-7.277,3.017-14.559a6.093,6.093,0,0,0,.388-2.048C274.877,403.595,274.913,403.345,275.028,403.147Z" transform="translate(-217.05 -325.242)"/>
    <path id="Path_2399" data-name="Path 2399" class="cls-10" d="M123.234,451.656c-.13-.24-.462-.258-.573-.52a6.09,6.09,0,0,1,1.011-1.619l.52-.011.36.055c.12.157.238.154.355,0,.115-.043.231-.084.345-.128a1.516,1.516,0,0,0,.74-2.221,1.37,1.37,0,0,0-.1-.152.333.333,0,0,1,.019-.491,7.035,7.035,0,0,1,1.085-1.122l.693-.023.031.031.175.178-.019-.018a7.879,7.879,0,0,0,1.36,1.517c.038.049.073.1.114.146q4.944,5.53,9.892,11.056a6.038,6.038,0,0,0,.749.687c1.211.96,2.429,1.91,3.645,2.864.146.115.294.226.434.348.234.2.24.29.058.544-.283.4-.355.416-.728.144-.624-.455-1.261-.9-1.858-1.385a28.042,28.042,0,0,0-5.571-3.46c-3.388-1.648-6.745-3.359-10.115-5.044-.123-.191-.34-.243-.523-.336C124.636,452.339,123.933,452,123.234,451.656Z" transform="translate(-99.036 -359.347)"/>
    <path id="Path_2400" data-name="Path 2400" class="cls-6" d="M302.1,586.551a2.418,2.418,0,0,0-.252.113,1.483,1.483,0,0,0-.648,2.241c.172.3.193.482-.043.72a8.415,8.415,0,0,1-1.1,1.1.814.814,0,0,1-.537-.239.5.5,0,0,0-.4-.128l-.005-.006a2.233,2.233,0,0,0-.8-.957,9.049,9.049,0,0,0-1.233-1.323l-1.134-1.427c-.048-.488-.048-.488-.485-.529a35.07,35.07,0,0,1-2.668-3c-.048-.487-.048-.487-.484-.528-.133-.126-.275-.244-.4-.38q-1.88-2.094-3.753-4.195a8.772,8.772,0,0,0-1.209-1.133c-1.145-.883-2.278-1.78-3.415-2.674-.169-.133-.337-.268-.492-.416a.328.328,0,0,1-.007-.489c.058-.072.122-.138.184-.207l.34-.022c.181.114.37.217.541.344,1.14.845,2.283,1.686,3.41,2.547a10.181,10.181,0,0,0,1.651,1.014c2.29,1.141,4.574,2.3,6.862,3.44q3.1,1.551,6.207,3.091a10.131,10.131,0,0,0,1.322.758,1.386,1.386,0,0,0,1.006.528,7.343,7.343,0,0,1-.927,1.584c-.247.384-.263.373-.838.169A.571.571,0,0,0,302.1,586.551Z" transform="translate(-228.342 -462.336)"/>
    <path id="Path_2401" data-name="Path 2401" class="cls-6" d="M291.662,597.594l-.242.141-.157.127a1.685,1.685,0,0,0-.345,1.854.3.3,0,0,1-.133.39c-.226.147-.467.273-.7.408a.221.221,0,0,0-.094.056,1.834,1.834,0,0,1-.781.485,1.124,1.124,0,0,0-.534-.328l-.012-.017c-.045-.136-.037-.3-.192-.381l.011.016a7.459,7.459,0,0,0-1.035-2.106c-.066-.092-.092-.267-.269-.131l0,0c.07-.054.147-.1.093-.213-.121-.249-.233-.5-.358-.751-1.612-3.193-3.255-6.371-4.827-9.584a26.98,26.98,0,0,0-3.171-5.088,17.435,17.435,0,0,1-1.576-2.163q.006-.245.011-.49a.145.145,0,0,1,.145-.091l.488-.018c.2.232.411.457.6.7q1.294,1.632,2.576,3.273a7.972,7.972,0,0,0,1.016,1.072q4.708,4.178,9.41,8.361c.229.2.479.382.719.573a7.579,7.579,0,0,0,1.173,1.089,2.5,2.5,0,0,0,1.125.93l.005.006a.5.5,0,0,0,.127.4.811.811,0,0,1,.24.537,7.281,7.281,0,0,1-1.305,1.242.249.249,0,0,1-.387-.07.169.169,0,0,0-.117-.087l-.292-.161-.085-.026-.243-.045q-.167-.227-.352-.014l-.408.063A.167.167,0,0,0,291.662,597.594Z" transform="translate(-223.825 -467.687)"/>
    <path id="Path_2402" data-name="Path 2402" class="cls-10" d="M274.726,607.226c-.02-.244.084-.511-.137-.716a9.807,9.807,0,0,0-.446-2.045q-.14-.68-.28-1.36c-.828-3.989-1.665-7.975-2.478-11.967a16.584,16.584,0,0,0-.976-3.273c-.475-1.105-.907-2.229-1.357-3.346-.081-.2-.164-.4-.23-.605a.24.24,0,0,1,.14-.3c.055-.028.109-.058.166-.081.394-.161.484-.134.655.223.107.222.2.451.3.678.56,1.3,1.123,2.608,1.676,3.915a7.072,7.072,0,0,0,.609,1.141q3.646,5.529,7.287,11.061.2.308.43.6c.074.1.151.037.213-.033l0,0c-.242.123-.059.251,0,.378a10.049,10.049,0,0,0,1.092,1.723c.046.064.143.091.216.135l-.011-.016a.492.492,0,0,0,.192.381l.012.017q-.009.327-.017.654a12.811,12.811,0,0,1-1.773.962,4.354,4.354,0,0,0-1.045-.847.245.245,0,0,0-.155-.041l-.552,0a.387.387,0,0,0-.357.125,1.694,1.694,0,0,0-.9,1.751c.036.278-.181.35-.42.349a.239.239,0,0,0-.143.05.551.551,0,0,1-.419.133.388.388,0,0,0-.346.125l-.344.079-.21.085A.519.519,0,0,1,274.726,607.226Z" transform="translate(-216.942 -470.692)"/>
    <path id="Path_2403" data-name="Path 2403" class="cls-6" d="M185.4,406.424a1.905,1.905,0,0,0,.7-1.723.3.3,0,0,0,.224-.2l-.006,0,.19-.09.358-.095a.37.37,0,0,0,.39-.139l.183-.04a.9.9,0,0,1,1.048.549c.029.14.059.279.088.419a.2.2,0,0,0,.174.157l-.009-.017a2.539,2.539,0,0,0,.21,1.5c.879,4.248,1.777,8.492,2.628,12.745a21.454,21.454,0,0,0,1.384,4.484c.348.788.648,1.6.963,2.4.089.227.153.465.229.7q-.017.2-.034.4a.159.159,0,0,1-.166.054l-.193.1c-.111.049-.237.132-.326-.005a3.224,3.224,0,0,1-.248-.492q-.933-2.165-1.858-4.333a7.487,7.487,0,0,0-.657-1.217c-1.125-1.7-2.238-3.4-3.359-5.1q-2.241-3.4-4.488-6.789a5.43,5.43,0,0,0-1.133-1.664l.012.015c-.011-.122-.056-.21-.2-.2l.012.015a.387.387,0,0,0-.2-.391l0,0q0-.367.006-.734a2.827,2.827,0,0,1,.984-.534.357.357,0,0,0,.325-.169l.039-.015.578-.047a3.312,3.312,0,0,0,.868.631.528.528,0,0,0,.717.035l.368-.089Z" transform="translate(-146.356 -326.035)"/>
    <path id="Path_2404" data-name="Path 2404" class="cls-6" d="M148.683,423.955a5.438,5.438,0,0,1,1.273-1.159l.282-.027.487.288a.357.357,0,0,0,.353.118l.546-.009.179-.059c.129-.082.262-.158.386-.247a1.455,1.455,0,0,0,.63-1.35c-.011-.183-.048-.364-.073-.546q.012-.168.025-.337l.057-.037a.134.134,0,0,0,.079-.047,4.986,4.986,0,0,1,1.372-.875l.692.338,0,0c.038.145.048.3.2.391l-.012-.015c.017.116.04.226.2.2l-.012-.014c-.008.087-.05.189-.02.259a7.135,7.135,0,0,0,.876,1.661c.035.086.065.174.106.256q3.17,6.279,6.346,12.553a7.2,7.2,0,0,0,.648,1.009c.882,1.19,1.776,2.371,2.666,3.556.148.2.3.392.432.6a.293.293,0,0,1,0,.256.55.55,0,0,1-.916.1c-.124-.137-.234-.287-.348-.432-.822-1.042-1.656-2.075-2.461-3.13a11.281,11.281,0,0,0-1.525-1.608q-2.916-2.573-5.816-5.165c-.253-.225-.489-.468-.734-.7l-.132-.122c-.261-.213-.528-.418-.781-.64q-1.561-1.366-3.115-2.739a8.953,8.953,0,0,0-1.25-1.2.749.749,0,0,0-.478-.247l.019.018-.175-.177-.031-.031Q148.672,424.3,148.683,423.955Z" transform="translate(-120.011 -338.572)"/>
    <path id="Path_2405" data-name="Path 2405" class="cls-10" d="M311.216,484.969c-.207,0-.427-.035-.553.2a10.357,10.357,0,0,0-2.432.516l-.338.051a.388.388,0,0,0-.425.106c-.212.032-.426.055-.635.1-1.887.392-3.77.8-5.66,1.176a18.064,18.064,0,0,1-2.522.468.406.406,0,0,0-.4.109l-.512.082-.224.071a1.436,1.436,0,0,1-.695.117.407.407,0,0,0-.427.111,4.118,4.118,0,0,1-1.284.245.4.4,0,0,0-.38.1l-.538.084-.19.053c-.654.232-1.309.463-1.962.7a15.933,15.933,0,0,1-1.951.725l-.182.1a1.707,1.707,0,0,1-.746.275l-.18.093a1.66,1.66,0,0,1-.748.278l-.685-.008a1.312,1.312,0,0,1-.088-.163c-.129-.338-.116-.424.108-.535.193-.1.4-.174.594-.259,1.362-.584,2.72-1.174,4.087-1.746a7.976,7.976,0,0,0,1.3-.7q3.291-2.161,6.587-4.314,2.865-1.879,5.726-3.766c.613-.2,1.043-.707,1.626-.956a1.78,1.78,0,0,1,.943-.17,4.744,4.744,0,0,1,.762,1.463q-.009.18-.018.36l-.027.017a.216.216,0,0,0-.137.113,4.011,4.011,0,0,0-.271.375,1.466,1.466,0,0,0,.314,2c.113.1.242.189.364.282a.228.228,0,0,0,.112.035l.025.006a.481.481,0,0,0,.736.032c.12-.025.265-.066.317.081A8.383,8.383,0,0,1,311.216,484.969Z" transform="translate(-231.92 -385.708)"/>
    <path id="Path_2406" data-name="Path 2406" class="cls-6" d="M289.181,419.807c.161.084.329.157.48.255.572.374.626.391.431,1.013a1.338,1.338,0,0,0,.486,1.475,5.154,5.154,0,0,0,.53.353.19.19,0,0,0,.164.044l.545,0a.358.358,0,0,0,.366-.128c.1-.071.2-.136.294-.216a.356.356,0,0,1,.552-.007,10.578,10.578,0,0,1,1.234,1.2l-.213.654a5.219,5.219,0,0,0-1.143,1.068l-.754.573-.157.145c-.221.214-.434.436-.664.641q-4.88,4.344-9.766,8.682a9.747,9.747,0,0,0-1.269,1.344c-.867,1.125-1.755,2.235-2.636,3.35-.134.169-.268.339-.409.5a.262.262,0,0,1-.4.064c-.074-.056-.152-.105-.225-.163-.246-.2-.261-.275-.085-.533.122-.178.255-.349.385-.522.853-1.136,1.7-2.274,2.563-3.406a9.012,9.012,0,0,0,.878-1.412c1.481-2.953,2.976-5.9,4.462-8.849.681-1.35,1.352-2.705,2.028-4.058a1.806,1.806,0,0,0,.51-1.16l-.007.01c.239-.04.231-.2.194-.385l.007-.006a.325.325,0,0,0,.357-.19,2.988,2.988,0,0,1,.571-.757,1.072,1.072,0,0,1,.558.325A.176.176,0,0,0,289.181,419.807Z" transform="translate(-223.088 -338.349)"/>
    <path id="Path_2407" data-name="Path 2407" class="cls-6" d="M188.522,606.52c-.153.288-.315.565-.7.564l-.338-.079a.384.384,0,0,0-.356-.129.53.53,0,0,1-.4-.12.225.225,0,0,0-.161-.063c-.236,0-.48-.062-.443-.341a1.7,1.7,0,0,0-1.082-1.849.242.242,0,0,0-.146-.036l-.555,0a.383.383,0,0,0-.359.128l-.872.736a9.564,9.564,0,0,1-1.733-.921,3.462,3.462,0,0,1,.1-.513.991.991,0,0,0,.058-.518l.017-.018a.286.286,0,0,0,.2-.387l-.01.015c.456-.149.557-.577.738-.942.089-.126.181-.25.266-.379q4.024-6.112,8.05-12.224a7.178,7.178,0,0,0,.6-1.146q.963-2.257,1.936-4.509c.162-.374.27-.4.645-.254s.4.221.239.623q-.909,2.279-1.828,4.553a7.621,7.621,0,0,0-.411,1.324q-1.475,7.117-2.952,14.234A15.755,15.755,0,0,0,188.522,606.52Z" transform="translate(-146.406 -470.703)"/>
    <path id="Path_2408" data-name="Path 2408" class="cls-11" d="M259,397.373a8.507,8.507,0,0,1,2.048.046l.224.136a2.066,2.066,0,0,0,1.068,1.485.675.675,0,0,0,.918.034,2.135,2.135,0,0,0,1.1-.978.391.391,0,0,0,.387-.172l.385.058a.394.394,0,0,0,.389.107l.349.058c.143.181.344.149.537.146l.01,0q.023.405.045.81c-.046.173-.088.347-.14.519a7.658,7.658,0,0,0-.434,1.46q-2.359,7.117-4.716,14.235a4.344,4.344,0,0,0-.17.717q-.368,2.473-.721,4.948c-.118.819-.117.821-1,.577a.59.59,0,0,1-.034-.175c.141-1.164.276-2.33.432-3.492a21.117,21.117,0,0,0,.154-4.522c-.2-2.554-.3-5.117-.455-7.675-.126-2.158-.261-4.315-.392-6.472a6.636,6.636,0,0,0-.011-1.256Q258.985,397.671,259,397.373Z" transform="translate(-209.004 -320.55)"/>
    <path id="Path_2409" data-name="Path 2409" class="cls-11" d="M220.09,398.034a1.218,1.218,0,0,1,.749-.117l.056.013h.058a2.132,2.132,0,0,0,1.21,1.158.506.506,0,0,0,.724-.005,1.822,1.822,0,0,0,1.207-1.523.282.282,0,0,0,.277-.135,7.49,7.49,0,0,1,1.862-.049c.005.213-.022.439.219.56a5.911,5.911,0,0,0-.028,1.29c-.05.553-.117,1.105-.148,1.659-.153,2.711-.3,5.423-.444,8.134-.069,1.263-.1,2.531-.227,3.788a21.811,21.811,0,0,0,.168,5.533c.15.975.234,1.96.343,2.941.013.118.03.246-.1.331a.525.525,0,0,1-.875-.366c-.138-.946-.278-1.892-.4-2.841a20,20,0,0,0-1.074-4.768c-.368-.947-.644-1.93-.965-2.9q-1.576-4.74-3.155-9.478a3.124,3.124,0,0,0-.556-1.5l.008.017q-.011-.264-.022-.529l-.165-.926L219,398.3c.257-.012.538.081.735-.178a.111.111,0,0,1,.145-.026Z" transform="translate(-176.61 -320.557)"/>
    <path id="Path_2410" data-name="Path 2410" class="cls-6" d="M309.463,573.141l-.243.075a.194.194,0,0,0-.122.066c-.107.109-.225.21-.32.329a1.466,1.466,0,0,0,.038,2.077,5.377,5.377,0,0,0,.426.384,10.592,10.592,0,0,1-1.214,2.176c-.092-.448-.456-.6-.818-.754-.471-.177-.806-.595-1.3-.736-.255-.173-.508-.351-.766-.519-3.617-2.368-7.242-4.725-10.85-7.107a17.388,17.388,0,0,0-3.179-1.691c-1.061-.421-2.1-.89-3.153-1.34-.2-.085-.392-.181-.589-.27-.094-.042-.163-.13-.134-.213a3.274,3.274,0,0,1,.266-.58.2.2,0,0,1,.246-.06,5.465,5.465,0,0,1,1.1.476.367.367,0,0,0,.378.16c1.4.442,2.735,1.048,4.093,1.6l.206.061.335.053c.159.193.372.155.581.137a1.014,1.014,0,0,1,.54.086.4.4,0,0,0,.38.1l.087-.013.079.04c.17.219.4.168.626.142l.491.076a.4.4,0,0,0,.426.111,1.406,1.406,0,0,1,.7.123l.217.066.516.08a.4.4,0,0,0,.4.109l.528.084a.4.4,0,0,0,.39.1l.083-.014.074.04c.209.258.494.163.758.165l.36.054a.409.409,0,0,0,.437.113,1.433,1.433,0,0,1,.684.116l.231.073.315.052c.164.2.385.161.6.138l.518.082a.4.4,0,0,0,.4.107l.078-.015.069.04c.211.264.5.166.768.165l.35.054c.156.186.365.15.569.136a1,1,0,0,1,.55.089l.243.077.493.077a.234.234,0,0,0,.234.113c.272.041.545.078.816.125.753.13,1.506.265,2.259.4a.378.378,0,0,0,.375.243,7.546,7.546,0,0,1-.627,2.033C310.132,573.063,309.779,572.934,309.463,573.141Z" transform="translate(-231.809 -455.786)"/>
    <path id="Path_2411" data-name="Path 2411" class="cls-6" d="M109.3,577.893a9.92,9.92,0,0,1-.855-1.526c-.112-.205-.028-.324.117-.474,1.021-1.056.838-2.062-.48-2.694a1.78,1.78,0,0,1-.157-.1.257.257,0,0,0-.168-.019l-.36.071a.277.277,0,0,1-.357-.193,8.141,8.141,0,0,1-.548-1.933l.268-.3a1.124,1.124,0,0,0,.619,0c.856-.161,1.714-.308,2.572-.46l.243-.115.482-.075.253-.081a.97.97,0,0,1,.542-.088.413.413,0,0,0,.385-.106l.534-.083a.414.414,0,0,0,.4-.108l.52-.082.212-.065a1.377,1.377,0,0,1,.708-.124.419.419,0,0,0,.418-.112l.5-.078.24-.077a1.377,1.377,0,0,1,.673-.112l.257-.084a1.29,1.29,0,0,1,.66-.1c.232.017.474.081.649-.149l.07-.041.079.016.2-.055a1.314,1.314,0,0,1,.721-.134.416.416,0,0,0,.408-.11l.507-.079.228-.072a1.38,1.38,0,0,1,.685-.116.422.422,0,0,0,.437-.113.8.8,0,0,1,.481-.073c.228.02.465.078.637-.145l.075-.041.084.015a.415.415,0,0,0,.387-.1.974.974,0,0,1,.532-.085.413.413,0,0,0,.4-.109l.517-.081.218-.072q2.573-1.039,5.146-2.077c.625-.25.629-.244.887.438a.754.754,0,0,1,0,.214c-.267.123-.543.257-.825.378-1.3.559-2.6,1.123-3.915,1.667a9.273,9.273,0,0,0-1.546.827c-1.778,1.17-3.563,2.33-5.342,3.5q-3.055,2.006-6.1,4.021A13.656,13.656,0,0,0,110,577.9Z" transform="translate(-85.994 -455.819)"/>
    <path id="Path_2412" data-name="Path 2412" class="cls-6" d="M100.71,555.677l2.074-.038a11.549,11.549,0,0,1,1.987.089,2.549,2.549,0,0,0,1.374.111,13.873,13.873,0,0,1,2.343.1c.254.189.538.1.814.088a7.651,7.651,0,0,1,1.775.066.541.541,0,0,0,.405.144l1.153-.023a13.191,13.191,0,0,1,2.346.1c.314.2.655.094.987.088a3.962,3.962,0,0,1,1.228.051c.109.051.216.144.326.145q1.065.019,2.13,0c.108,0,.213-.1.32-.157a.683.683,0,0,1,.473-.042.466.466,0,0,0,.443-.085,3.145,3.145,0,0,1,1.062-.1c.274.01.562.107.8-.121a1.548,1.548,0,0,1,.7-.062.453.453,0,0,0,.4-.073,2.322,2.322,0,0,1,.949-.09.3.3,0,0,0,.262.157.7.7,0,0,1,.042.588.168.168,0,0,0-.112.1,2.063,2.063,0,0,1-.872.1l-.224.049a2.754,2.754,0,0,1-1.072.136.447.447,0,0,0-.423.088,2.166,2.166,0,0,1-.881.1l-.225.058a2.9,2.9,0,0,1-1.065.129.449.449,0,0,0-.427.089l-.718.087-.21.088-.358.093-.2.09-.362.094-.194.088-.366.1-.191.088-.369.1-.186.086-.374.1-.18.079a.543.543,0,0,1-.38.106l-.175.076c-1.2.407-2.392.818-3.591,1.219q-3.6,1.2-7.2,2.4a2.756,2.756,0,0,0-.439.072c-.74.245-1.477.5-2.215.751l-.426-.068a5.822,5.822,0,0,1-.4-2.041l.155-.147a.134.134,0,0,1,.154-.049l.215-.133c1.081-1.255.813-2.288-.741-2.855a.261.261,0,0,0-.244-.159A6.205,6.205,0,0,1,100.71,555.677Z" transform="translate(-81.295 -448.255)"/>
    <path id="Path_2413" data-name="Path 2413" class="cls-6" d="M312.013,555.729l2.4.021a5.621,5.621,0,0,1-.117,2.045l-.2.144a3.89,3.89,0,0,0-.514.177,1.487,1.487,0,0,0-.536,2.364,3.8,3.8,0,0,0,.313.33l.2.123a.162.162,0,0,1,.168.052l.137.139a6.4,6.4,0,0,1-.425,2.074l-.525.007a1.808,1.808,0,0,1-.264-.064,9.121,9.121,0,0,0-2.256-.725.375.375,0,0,0-.147-.043.384.384,0,0,0-.412-.141q-3.332-1.108-6.663-2.216-2.892-.964-5.783-1.933l-.213-.094-2.025-.484a.423.423,0,0,0-.374-.077,2.354,2.354,0,0,1-.918-.1l-.239-.067a2.209,2.209,0,0,1-.871-.1.428.428,0,0,0-.434-.09,2.987,2.987,0,0,1-1.057-.126l-.237-.059a2.1,2.1,0,0,1-.853-.1.3.3,0,0,0-.158-.3q.018-.185.036-.37a.316.316,0,0,0,.3-.187,1.758,1.758,0,0,1,.755.066.658.658,0,0,0,.59.1l.515.046c.3.27.648.136.982.136a3.228,3.228,0,0,1,1.069.1.668.668,0,0,0,.577.094l.338.031a.516.516,0,0,0,.411.17c.554,0,1.108.005,1.662-.01a1.024,1.024,0,0,0,.33-.136l.38-.016c.065.1.126.09.183-.007a2.216,2.216,0,0,1,.874-.038,2.011,2.011,0,0,0,1.153-.093,12.225,12.225,0,0,1,2.182-.093l1.419.023a.6.6,0,0,0,.49-.155,4.614,4.614,0,0,1,1.252-.052,1.988,1.988,0,0,0,1.15-.1,13.369,13.369,0,0,1,2.18-.092,2.527,2.527,0,0,0,1.349-.106A9.793,9.793,0,0,1,312.013,555.729Z" transform="translate(-234.042 -448.328)"/>
    <path id="Path_2414" data-name="Path 2414" class="cls-12" d="M334.923,418.008a2.984,2.984,0,0,0-.571.757.325.325,0,0,1-.357.19.66.66,0,0,1,.145-.6.874.874,0,0,0,.213-.678A.9.9,0,0,1,334.923,418.008Z" transform="translate(-269.518 -336.964)"/>
    <path id="Path_2415" data-name="Path 2415" class="cls-12" d="M214.129,402.484l.165.926-.239-.047a.9.9,0,0,0-1.048-.549A2.39,2.39,0,0,1,214.129,402.484Z" transform="translate(-171.924 -324.707)"/>
    <path id="Path_2416" data-name="Path 2416" class="cls-9" d="M178.215,686.573a.989.989,0,0,1-.058.518,3.465,3.465,0,0,0-.1.513,1.756,1.756,0,0,1-.8-.479.681.681,0,0,0,.59-.35A.358.358,0,0,1,178.215,686.573Z" transform="translate(-143.084 -553.898)"/>
    <path id="Path_2417" data-name="Path 2417" class="cls-12" d="M367.063,663.435a.811.811,0,0,0-.24-.537.234.234,0,1,1,.269-.269.815.815,0,0,0,.537.239A1.317,1.317,0,0,1,367.063,663.435Z" transform="translate(-295.911 -534.477)"/>
    <path id="Path_2418" data-name="Path 2418" class="cls-7" d="M389.846,629.822c.362.154.726.306.818.754l.007,0a1.384,1.384,0,0,1-1.006-.528A.248.248,0,0,0,389.846,629.822Z" transform="translate(-314.444 -508.114)"/>
    <path id="Path_2419" data-name="Path 2419" class="cls-9" d="M145.792,441.849q-.011.345-.023.69l-.693.023A2.094,2.094,0,0,1,145.792,441.849Z" transform="translate(-117.12 -356.465)"/>
    <path id="Path_2420" data-name="Path 2420" class="cls-12" d="M297.559,403.108q-.023-.405-.046-.81a.656.656,0,0,1,.564.16c-.115.2-.15.448-.374.575A.319.319,0,0,1,297.559,403.108Z" transform="translate(-240.1 -324.553)"/>
    <path id="Path_2421" data-name="Path 2421" class="cls-12" d="M178.426,418.35l-.692-.338a1.244,1.244,0,0,1,.7-.4Q178.429,417.983,178.426,418.35Z" transform="translate(-143.467 -336.915)"/>
    <path id="Path_2422" data-name="Path 2422" class="cls-7" d="M392.4,476.46a1.78,1.78,0,0,0-.943.17q.018-.132.037-.265a.8.8,0,0,1,.677-.31A.529.529,0,0,1,392.4,476.46Z" transform="translate(-315.888 -384.061)"/>
    <path id="Path_2423" data-name="Path 2423" class="cls-8" d="M335.9,689.115q.008-.326.017-.654a1.125,1.125,0,0,1,.534.328A1.053,1.053,0,0,1,335.9,689.115Z" transform="translate(-271.072 -555.422)"/>
    <path id="Path_2424" data-name="Path 2424" class="cls-8" d="M246.733,711.361a4.139,4.139,0,0,1,1.446.12A3.048,3.048,0,0,1,246.733,711.361Z" transform="translate(-199.132 -573.893)"/>
    <path id="Path_2425" data-name="Path 2425" class="cls-9" d="M121.021,631.72l.7,0,.2.008a1.441,1.441,0,0,1-.668.4A.6.6,0,0,1,121.021,631.72Z" transform="translate(-97.713 -509.646)"/>
    <path id="Path_2426" data-name="Path 2426" class="cls-7" d="M402.259,606.794c.316-.208.668-.078,1-.11-.071.043-.14.121-.212.123C402.787,606.816,402.523,606.8,402.259,606.794Z" transform="translate(-324.604 -489.439)"/>
    <path id="Path_2427" data-name="Path 2427" class="cls-12" d="M367.621,442.865l.213-.654a.764.764,0,0,1,.412.413l-.5.24A.114.114,0,0,1,367.621,442.865Z" transform="translate(-296.66 -356.758)"/>
    <path id="Path_2428" data-name="Path 2428" class="cls-12" d="M257.418,397.939c-.241-.121-.213-.347-.219-.56a.476.476,0,0,1,.372,0q-.014.3-.028.6A1.122,1.122,0,0,0,257.418,397.939Z" transform="translate(-207.576 -320.56)"/>
    <path id="Path_2429" data-name="Path 2429" class="cls-12" d="M277.331,406.213a.675.675,0,0,1-.918-.034Z" transform="translate(-223.077 -327.688)"/>
    <path id="Path_2430" data-name="Path 2430" class="cls-12" d="M236.86,406.362a.506.506,0,0,1-.724.005Z" transform="translate(-190.583 -327.836)"/>
    <path id="Path_2431" data-name="Path 2431" class="cls-9" d="M131.582,642.311a.611.611,0,0,1,.692.016Z" transform="translate(-106.233 -518.11)"/>
    <path id="Path_2432" data-name="Path 2432" class="cls-12" d="M317.485,416.965a.528.528,0,0,1-.718-.03Z" transform="translate(-255.633 -336.366)"/>
    <path id="Path_2433" data-name="Path 2433" class="cls-7" d="M408.527,594.454l.525-.007-.107.341a.378.378,0,0,1-.375-.243A.2.2,0,0,1,408.527,594.454Z" transform="translate(-329.661 -479.575)"/>
    <path id="Path_2434" data-name="Path 2434" class="cls-9" d="M105.8,594.274l.426.068-.029,0-.269.3A.386.386,0,0,1,105.8,594.274Z" transform="translate(-85.425 -479.436)"/>
    <path id="Path_2435" data-name="Path 2435" class="cls-12" d="M382.1,642.293a.572.572,0,0,1,.7,0Z" transform="translate(-308.339 -518.079)"/>
    <path id="Path_2436" data-name="Path 2436" class="cls-12" d="M220.527,401.34c-.2.259-.478.167-.735.178A1.044,1.044,0,0,1,220.527,401.34Z" transform="translate(-177.398 -323.779)"/>
    <path id="Path_2437" data-name="Path 2437" class="cls-12" d="M196.523,416.959a.528.528,0,0,1-.717-.035Z" transform="translate(-158.047 -336.357)"/>
    <path id="Path_2438" data-name="Path 2438" class="cls-12" d="M287.257,400.1a.391.391,0,0,1-.387.172C286.948,399.993,286.962,399.986,287.257,400.1Z" transform="translate(-231.513 -322.729)"/>
    <path id="Path_2439" data-name="Path 2439" class="cls-7" d="M402.887,502.237a.481.481,0,0,1-.736-.032Z" transform="translate(-324.517 -405.158)"/>
    <path id="Path_2440" data-name="Path 2440" class="cls-12" d="M310.207,406.468a.377.377,0,0,1-.176-.377C310.321,406.158,310.328,406.174,310.207,406.468Z" transform="translate(-250.198 -327.617)"/>
    <path id="Path_2441" data-name="Path 2441" class="cls-12" d="M295.222,401.666c-.193,0-.394.035-.537-.146A.69.69,0,0,1,295.222,401.666Z" transform="translate(-237.818 -323.923)"/>
    <path id="Path_2442" data-name="Path 2442" class="cls-9" d="M128.413,465.864l-.52.011C128.105,465.639,128.105,465.639,128.413,465.864Z" transform="translate(-103.257 -375.705)"/>
    <path id="Path_2443" data-name="Path 2443" class="cls-12" d="M188.9,413.025l-.578.047C188.658,412.816,188.658,412.816,188.9,413.025Z" transform="translate(-152.008 -333.089)"/>
    <path id="Path_2444" data-name="Path 2444" class="cls-12" d="M246.405,397.694a.282.282,0,0,1-.277.135C246.148,397.633,246.277,397.665,246.405,397.694Z" transform="translate(-198.644 -320.825)"/>
    <path id="Path_2445" data-name="Path 2445" class="cls-12" d="M269.95,397.836l-.224-.136C269.846,397.671,269.967,397.639,269.95,397.836Z" transform="translate(-217.682 -320.83)"/>
    <path id="Path_2446" data-name="Path 2446" class="cls-12" d="M291.255,400.757a.394.394,0,0,1-.39-.107A.409.409,0,0,1,291.255,400.757Z" transform="translate(-234.736 -323.218)"/>
    <path id="Path_2447" data-name="Path 2447" class="cls-12" d="M302.731,403.646a.361.361,0,0,1-.359-.126A.368.368,0,0,1,302.731,403.646Z" transform="translate(-244.02 -325.536)"/>
    <path id="Path_2448" data-name="Path 2448" class="cls-8" d="M101.346,566.413a.262.262,0,0,1,.244.159C101.462,566.591,101.327,566.62,101.346,566.413Z" transform="translate(-81.839 -456.959)"/>
    <path id="Path_2449" data-name="Path 2449" class="cls-9" d="M161.258,671.27a.2.2,0,0,1,.346-.007Z" transform="translate(-130.175 -541.467)"/>
    <path id="Path_2450" data-name="Path 2450" class="cls-12" d="M354.217,671.252q.185-.213.351.014Z" transform="translate(-285.846 -541.455)"/>
    <path id="Path_2451" data-name="Path 2451" class="cls-7" d="M400.184,486.082q.009-.18.018-.36C400.341,485.849,400.441,485.975,400.184,486.082Z" transform="translate(-322.93 -391.86)"/>
    <path id="Path_2452" data-name="Path 2452" class="cls-7" d="M383.357,466.834c-.119.16-.238.162-.358,0Z" transform="translate(-309.066 -376.622)"/>
    <path id="Path_2453" data-name="Path 2453" class="cls-9" d="M132.8,466.834c-.117.157-.235.16-.355,0Z" transform="translate(-106.932 -376.622)"/>
    <path id="Path_2454" data-name="Path 2454" class="cls-7" d="M387.107,465.839l-.476.014C386.894,465.639,386.9,465.638,387.107,465.839Z" transform="translate(-311.996 -375.7)"/>
    <path id="Path_2455" data-name="Path 2455" class="cls-9" d="M194.854,692.331a.383.383,0,0,1,.359-.128A.453.453,0,0,1,194.854,692.331Z" transform="translate(-157.279 -558.439)"/>
    <path id="Path_2456" data-name="Path 2456" class="cls-8" d="M315.818,692.327a.386.386,0,0,1,.358-.125A.46.46,0,0,1,315.818,692.327Z" transform="translate(-254.867 -558.439)"/>
    <path id="Path_2457" data-name="Path 2457" class="cls-9" d="M211.141,704.681a.384.384,0,0,1,.356.129A.364.364,0,0,1,211.141,704.681Z" transform="translate(-170.418 -568.507)"/>
    <path id="Path_2458" data-name="Path 2458" class="cls-8" d="M304.3,704.792a.389.389,0,0,1,.346-.126A.368.368,0,0,1,304.3,704.792Z" transform="translate(-245.575 -568.495)"/>
    <path id="Path_2459" data-name="Path 2459" class="cls-12" d="M356.437,437.121a.359.359,0,0,1-.366.128A.459.459,0,0,1,356.437,437.121Z" transform="translate(-287.342 -352.648)"/>
    <path id="Path_2460" data-name="Path 2460" class="cls-12" d="M159.7,437.306a.357.357,0,0,1-.353-.118A.439.439,0,0,1,159.7,437.306Z" transform="translate(-128.631 -352.702)"/>
    <path id="Path_2461" data-name="Path 2461" class="cls-12" d="M169.314,424.629q-.012.168-.025.337C169.143,424.842,169.1,424.726,169.314,424.629Z" transform="translate(-136.554 -342.573)"/>
    <path id="Path_2462" data-name="Path 2462" class="cls-12" d="M186.761,413.967a.358.358,0,0,1-.325.169A.334.334,0,0,1,186.761,413.967Z" transform="translate(-150.487 -333.969)"/>
    <path id="Path_2463" data-name="Path 2463" class="cls-12" d="M305.611,404.53a.364.364,0,0,1-.376-.137A.378.378,0,0,1,305.611,404.53Z" transform="translate(-246.329 -326.241)"/>
    <path id="Path_2464" data-name="Path 2464" class="cls-12" d="M210.434,404.359a.371.371,0,0,1-.39.139A.386.386,0,0,1,210.434,404.359Z" transform="translate(-169.533 -326.214)"/>
    <path id="Path_2465" data-name="Path 2465" class="cls-9" d="M113.041,606.81a.257.257,0,0,1,.168.019A.1.1,0,0,1,113.041,606.81Z" transform="translate(-91.275 -489.544)"/>
    <path id="Path_2466" data-name="Path 2466" class="cls-12" d="M229.4,400.113h-.058l-.056-.014C229.328,400.048,229.371,400,229.4,400.113Z" transform="translate(-185.055 -322.74)"/>
    <path id="Path_2467" data-name="Path 2467" class="cls-12" d="M224.55,400.843l-.206.058A.146.146,0,0,1,224.55,400.843Z" transform="translate(-181.07 -323.366)"/>
    <path id="Path_2468" data-name="Path 2468" class="cls-7" d="M401.553,501.944a.224.224,0,0,1-.112-.035l.066-.019Z" transform="translate(-323.944 -404.903)"/>
    <path id="Path_2469" data-name="Path 2469" class="cls-7" d="M399.338,487.787a.217.217,0,0,1,.137-.113A.118.118,0,0,1,399.338,487.787Z" transform="translate(-322.248 -393.435)"/>
    <path id="Path_2470" data-name="Path 2470" class="cls-12" d="M351.455,672.057a.165.165,0,0,1,.126-.046l-.05.061Z" transform="translate(-283.618 -542.15)"/>
    <path id="Path_2471" data-name="Path 2471" class="cls-12" d="M357.291,671.988l.085.026-.05.027Z" transform="translate(-288.326 -542.132)"/>
    <path id="Path_2472" data-name="Path 2472" class="cls-12" d="M349.392,673.107l.157-.127A.145.145,0,0,1,349.392,673.107Z" transform="translate(-281.954 -542.932)"/>
    <path id="Path_2473" data-name="Path 2473" class="cls-12" d="M359.243,672.955a.168.168,0,0,1,.117.087A.09.09,0,0,1,359.243,672.955Z" transform="translate(-289.901 -542.912)"/>
    <path id="Path_2474" data-name="Path 2474" class="cls-9" d="M155.717,673.9a.83.83,0,0,1,.11.007C155.785,673.983,155.748,673.989,155.717,673.9Z" transform="translate(-125.705 -543.671)"/>
    <path id="Path_2475" data-name="Path 2475" class="cls-7" d="M414.655,566.627l.2-.144C414.858,566.626,414.776,566.654,414.655,566.627Z" transform="translate(-334.605 -457.015)"/>
    <path id="Path_2476" data-name="Path 2476" class="cls-8" d="M342.8,687.415a.225.225,0,0,1,.094-.056l-.028.063Z" transform="translate(-276.636 -554.533)"/>
    <path id="Path_2477" data-name="Path 2477" class="cls-8" d="M105.556,582.006l-.215.133A.2.2,0,0,1,105.556,582.006Z" transform="translate(-85.063 -469.538)"/>
    <path id="Path_2478" data-name="Path 2478" class="cls-9" d="M199.586,692.216a.242.242,0,0,1,.146.036l-.082.022Z" transform="translate(-161.096 -558.451)"/>
    <path id="Path_2479" data-name="Path 2479" class="cls-7" d="M411.037,582.2l-.2-.123A.178.178,0,0,1,411.037,582.2Z" transform="translate(-331.526 -469.596)"/>
    <path id="Path_2480" data-name="Path 2480" class="cls-8" d="M320.521,692.225a.243.243,0,0,1,.155.041C320.609,692.311,320.559,692.289,320.521,692.225Z" transform="translate(-258.662 -558.458)"/>
    <path id="Path_2481" data-name="Path 2481" class="cls-10" d="M377.774,452.4a.763.763,0,0,1-.056-.129c0-.01.04-.032.062-.049a.583.583,0,0,1,.038.121C377.819,452.363,377.789,452.384,377.774,452.4Z" transform="translate(-304.805 -364.836)"/>
    <path id="Path_2482" data-name="Path 2482" class="cls-9" d="M208.229,703.738a.225.225,0,0,1,.161.063C208.311,703.845,208.263,703.808,208.229,703.738Z" transform="translate(-168.069 -567.747)"/>
    <path id="Path_2483" data-name="Path 2483" class="cls-8" d="M241.807,703.744l.181.127A.174.174,0,0,1,241.807,703.744Z" transform="translate(-195.158 -567.752)"/>
    <path id="Path_2484" data-name="Path 2484" class="cls-8" d="M308.261,703.771a.239.239,0,0,1,.143-.05l-.06.065Z" transform="translate(-248.771 -567.733)"/>
    <path id="Path_2485" data-name="Path 2485" class="cls-9" d="M103.877,582.945l-.155.147C103.7,582.961,103.769,582.935,103.877,582.945Z" transform="translate(-83.752 -470.294)"/>
    <path id="Path_2486" data-name="Path 2486" class="cls-8" d="M301.434,705.81l.21-.085A.167.167,0,0,1,301.434,705.81Z" transform="translate(-243.263 -569.35)"/>
    <path id="Path_2487" data-name="Path 2487" class="cls-7" d="M412.875,583.113l-.137-.139C412.848,582.957,412.913,582.984,412.875,583.113Z" transform="translate(-333.058 -470.316)"/>
    <path id="Path_2488" data-name="Path 2488" class="cls-12" d="M352.566,437.5a.191.191,0,0,1-.163-.044A.1.1,0,0,1,352.566,437.5Z" transform="translate(-284.383 -352.901)"/>
    <path id="Path_2489" data-name="Path 2489" class="cls-12" d="M164.176,437.385l-.179.059A.123.123,0,0,1,164.176,437.385Z" transform="translate(-132.385 -352.849)"/>
    <path id="Path_2490" data-name="Path 2490" class="cls-12" d="M155.65,435.284l-.282.027C155.446,435.137,155.542,435.148,155.65,435.284Z" transform="translate(-125.423 -351.086)"/>
    <path id="Path_2491" data-name="Path 2491" class="cls-12" d="M170.307,424.139a.133.133,0,0,1-.079.047l.021-.06Z" transform="translate(-137.411 -342.167)"/>
    <path id="Path_2492" data-name="Path 2492" class="cls-12" d="M341.886,421.14a.177.177,0,0,1-.13-.088C341.833,421.031,341.873,421.066,341.886,421.14Z" transform="translate(-275.793 -339.683)"/>
    <path id="Path_2493" data-name="Path 2493" class="cls-12" d="M322.562,415.969l-.206.127A.184.184,0,0,1,322.562,415.969Z" transform="translate(-260.142 -335.585)"/>
    <path id="Path_2494" data-name="Path 2494" class="cls-12" d="M201.621,416l-.2.123A.18.18,0,0,1,201.621,416Z" transform="translate(-162.577 -335.609)"/>
    <path id="Path_2495" data-name="Path 2495" class="cls-12" d="M327.52,413.222l-.209-.12A.171.171,0,0,1,327.52,413.222Z" transform="translate(-264.139 -333.27)"/>
    <path id="Path_2496" data-name="Path 2496" class="cls-12" d="M206.293,406.05a.3.3,0,0,1-.224.2C206.05,406.08,206.162,406.055,206.293,406.05Z" transform="translate(-166.324 -327.584)"/>
    <path id="Path_2497" data-name="Path 2497" class="cls-12" d="M309.3,405.7l-.179-.082C309.2,405.585,309.259,405.624,309.3,405.7Z" transform="translate(-249.461 -327.227)"/>
    <path id="Path_2498" data-name="Path 2498" class="cls-12" d="M207.4,405.556l-.19.09A.141.141,0,0,1,207.4,405.556Z" transform="translate(-167.243 -327.178)"/>
    <path id="Path_2499" data-name="Path 2499" class="cls-7" d="M400.372,607.751a.192.192,0,0,1,.122-.066l-.043.067Z" transform="translate(-323.082 -490.255)"/>
    <path id="Path_2501" data-name="Path 2501" class="cls-13" d="M162.456,442.48a.377.377,0,0,1,.147.043c-.117.283-.393.135-.586.215a.282.282,0,0,0-.158.029l-.493-.077a.2.2,0,0,0-.243-.077,1,1,0,0,0-.55-.089.691.691,0,0,0-.569-.135l-.35-.054a1.1,1.1,0,0,0-.768-.165l-.069-.04-.078.015a.418.418,0,0,0-.4-.107l-.518-.082a.728.728,0,0,0-.6-.138l-.315-.052a.185.185,0,0,0-.231-.073,1.433,1.433,0,0,0-.684-.116.455.455,0,0,0-.437-.113l-.36-.054a1.083,1.083,0,0,0-.758-.165l-.074-.04-.083.014a.407.407,0,0,0-.39-.1l-.528-.085a.419.419,0,0,0-.4-.109l-.516-.08a.164.164,0,0,0-.217-.066,1.406,1.406,0,0,0-.7-.123.444.444,0,0,0-.426-.111l-.492-.076a.786.786,0,0,0-.626-.143l-.079-.04-.087.013a.4.4,0,0,0-.38-.1,1.014,1.014,0,0,0-.54-.086.71.71,0,0,0-.581-.137l-.335-.053a.151.151,0,0,0-.206-.061c-1.358-.547-2.693-1.154-4.093-1.6a.4.4,0,0,0-.378-.16,5.467,5.467,0,0,0-1.1-.476.2.2,0,0,0-.246.06,3.29,3.29,0,0,0-.266.58c-.028.083.04.17.134.213.2.089.39.185.589.27,1.05.45,2.092.919,3.153,1.34a17.4,17.4,0,0,1,3.179,1.691c3.608,2.382,7.232,4.739,10.85,7.107.258.169.511.346.766.52l-.206.207q-3.1-1.545-6.208-3.091c-2.289-1.144-4.572-2.3-6.862-3.44a10.189,10.189,0,0,1-1.651-1.014c-1.128-.861-2.27-1.7-3.41-2.547-.171-.127-.36-.229-.541-.344-.128-.208-.24-.182-.34.022-.061.068-.126.135-.184.206a.328.328,0,0,0,.007.489c.155.148.323.283.492.416,1.136.893,2.27,1.79,3.415,2.673a8.793,8.793,0,0,1,1.209,1.133q1.868,2.1,3.753,4.195c.122.136.264.254.4.38a1.143,1.143,0,0,0,.484.529,35,35,0,0,0,2.668,3,1.163,1.163,0,0,0,.485.529l1.134,1.426-.266.262c-.24-.19-.49-.37-.719-.573q-4.707-4.178-9.41-8.361a7.981,7.981,0,0,1-1.016-1.072q-1.277-1.644-2.576-3.273c-.191-.24-.4-.466-.6-.7-.22-.277-.22-.277-.488.018a.145.145,0,0,0-.145.091c-.277.222-.277.222-.011.49a17.458,17.458,0,0,0,1.576,2.163,26.973,26.973,0,0,1,3.171,5.088c1.572,3.213,3.215,6.391,4.827,9.584.125.247.237.5.358.751.054.112-.023.159-.093.213-.062.071-.139.129-.213.033q-.225-.292-.43-.6-3.644-5.53-7.287-11.061a7.07,7.07,0,0,1-.609-1.141c-.553-1.307-1.116-2.61-1.676-3.915-.1-.227-.191-.456-.3-.678-.171-.357-.262-.385-.655-.223-.057.023-.111.053-.166.082a.24.24,0,0,0-.14.3c.066.205.149.4.23.605.45,1.116.882,2.24,1.357,3.346a16.587,16.587,0,0,1,.976,3.273c.813,3.992,1.65,7.978,2.478,11.967q.141.68.28,1.36l-.339-.012q-1.478-4.435-2.955-8.87c-.409-1.23-.779-2.474-1.229-3.688a19.541,19.541,0,0,1-1-4.41c-.125-1.011-.277-2.018-.419-3.027a2.725,2.725,0,0,0-.053-.272c-.05-.2-.155-.333-.39-.286-.121.024-.244.039-.363.071a.263.263,0,0,0-.214.262,2.047,2.047,0,0,0,.025.276q.312,2.527.624,5.055a11.223,11.223,0,0,1-.029,2.035c-.095,1.6-.195,3.206-.29,4.809q-.294,4.947-.584,9.9a1.22,1.22,0,0,1-.176.008c-.1-1.477-.213-2.954-.3-4.432-.164-2.8-.31-5.607-.466-8.41-.048-.862-.092-1.726-.162-2.586a18.593,18.593,0,0,1,.27-3.407q.151-1.473.346-2.94c.066-.5-.08-.586-.541-.632-.233-.024-.352.057-.389.285-.08.487-.148.975-.218,1.464-.185,1.282-.365,2.565-.557,3.845a4.883,4.883,0,0,1-.185.808q-2.335,7.07-4.681,14.136l-.31-.184q1.476-7.117,2.952-14.234a7.627,7.627,0,0,1,.411-1.324q.922-2.274,1.828-4.553c.16-.4.125-.479-.239-.623s-.483-.12-.645.254q-.977,2.251-1.936,4.509a7.151,7.151,0,0,1-.6,1.147q-4.029,6.109-8.05,12.224c-.085.129-.177.253-.266.379l-.207-.207q1.529-3.057,3.059-6.113c1.177-2.338,2.364-4.671,3.539-7.011a9.248,9.248,0,0,1,.922-1.489c.768-1,1.524-2.015,2.279-3.028.164-.22.3-.459.451-.69.447-.456.447-.456,0-.756-.273-.316-.31-.315-.532.012a.094.094,0,0,0-.075.115,11.974,11.974,0,0,0-1.407,1.715,27.443,27.443,0,0,1-4.554,4.851c-1.421,1.19-2.779,2.456-4.162,3.692-.16.143-.3.305-.452.459a2,2,0,0,0-.728.659,3.325,3.325,0,0,0-.942.825,2.046,2.046,0,0,0-.728.659l-1.224.946-.432-.081a28.3,28.3,0,0,1,2-2.3c2.378-2.675,4.772-5.336,7.154-8.007a8.072,8.072,0,0,1,1.081-1.007c1.194-.927,2.382-1.863,3.571-2.8.145-.114.291-.228.428-.352a.263.263,0,0,0,.021-.4c-.1-.119-.193-.24-.3-.352a.185.185,0,0,0-.248-.02c-.18.119-.353.248-.527.377-1.236.922-2.469,1.85-3.71,2.766a6.6,6.6,0,0,1-.933.6q-6.071,3.061-12.151,6.1c-.082.041-.17.071-.256.106-.166-.032-.366,0-.42-.236q3.052-2.011,6.1-4.021c1.779-1.169,3.564-2.328,5.342-3.5a9.259,9.259,0,0,1,1.546-.827c1.31-.543,2.612-1.108,3.915-1.667.282-.121.557-.255.825-.378a.753.753,0,0,0,0-.214c-.259-.683-.263-.689-.887-.438q-2.575,1.034-5.146,2.077a.176.176,0,0,0-.218.072l-.517.081a.42.42,0,0,0-.4.109.974.974,0,0,0-.532.084.406.406,0,0,0-.387.1l-.084-.015-.075.041a.807.807,0,0,0-.638.145.8.8,0,0,0-.481.073.459.459,0,0,0-.437.113,1.378,1.378,0,0,0-.685.116.182.182,0,0,0-.228.072l-.507.079a.428.428,0,0,0-.408.11,1.317,1.317,0,0,0-.721.134.135.135,0,0,0-.2.055l-.079-.016-.07.041a.81.81,0,0,0-.649.149,1.286,1.286,0,0,0-.66.1.225.225,0,0,0-.257.084,1.375,1.375,0,0,0-.673.112.2.2,0,0,0-.24.077l-.5.077a.438.438,0,0,0-.418.112,1.374,1.374,0,0,0-.708.124.155.155,0,0,0-.212.064l-.52.082a.421.421,0,0,0-.4.107l-.534.083a.4.4,0,0,0-.385.106.968.968,0,0,0-.542.088.221.221,0,0,0-.253.081l-.482.075a.308.308,0,0,0-.162-.029c-.192-.083-.473.072-.588-.219q3.6-1.2,7.2-2.4c1.2-.4,2.394-.812,3.591-1.219a.126.126,0,0,0,.175-.076.542.542,0,0,0,.38-.106.133.133,0,0,0,.18-.079l.374-.1a.143.143,0,0,0,.186-.086l.369-.1a.15.15,0,0,0,.191-.088l.366-.1a.153.153,0,0,0,.194-.088l.361-.094a.157.157,0,0,0,.2-.09l.358-.093a.173.173,0,0,0,.21-.088l.718-.087a.453.453,0,0,0,.427-.089,2.9,2.9,0,0,0,1.065-.129.165.165,0,0,0,.225-.058,2.17,2.17,0,0,0,.881-.1.44.44,0,0,0,.423-.088,2.761,2.761,0,0,0,1.072-.135.16.16,0,0,0,.224-.05,2.063,2.063,0,0,0,.872-.1c.1.032.142,0,.112-.1a.7.7,0,0,0-.042-.588c-.026-.154-.118-.2-.262-.157a2.328,2.328,0,0,0-.949.09.417.417,0,0,0-.4.073,1.552,1.552,0,0,0-.7.062,1.179,1.179,0,0,0-.8.121,3.151,3.151,0,0,0-1.062.1.466.466,0,0,0-.443.085.683.683,0,0,0-.473.042l-2.775.013a3.957,3.957,0,0,0-1.228-.05,1.755,1.755,0,0,0-.986-.088,13.209,13.209,0,0,0-2.347-.1,3.828,3.828,0,0,0-1.558-.12,7.667,7.667,0,0,0-1.775-.066,1.179,1.179,0,0,0-.814-.088,13.882,13.882,0,0,0-2.343-.1,3.04,3.04,0,0,0-1.373-.111,11.525,11.525,0,0,0-1.987-.089c-.257-.2-.591-.107-.926-.251,1.3-.081,2.534-.165,3.773-.234,3.826-.212,7.654-.382,11.476-.646a19.732,19.732,0,0,1,4.15.177c1.162.164,2.331.279,3.5.414a.294.294,0,0,0,.316-.138c.1-.176.11-.635.015-.706a.578.578,0,0,0-.244-.107c-.64-.1-1.28-.207-1.922-.3-1.07-.152-2.143-.286-3.212-.447a6.647,6.647,0,0,1-1.079-.258q-7.48-2.455-14.955-4.923l.177-.168c1.271.252,2.544.5,3.813.757,3.809.786,7.616,1.583,11.426,2.366a6.6,6.6,0,0,1,1.149.346q2.061.831,4.128,1.649.344.137.69.268a.313.313,0,0,0,.438-.208c.037-.085.058-.177.1-.26a.271.271,0,0,0-.122-.389,6.007,6.007,0,0,0-.592-.263c-1.419-.608-2.84-1.209-4.256-1.825a6.644,6.644,0,0,1-.979-.517q-5.86-3.822-11.711-7.657c-.077-.05-.148-.111-.222-.166.054-.22.246-.185.4-.218,3.37,1.685,6.727,3.4,10.115,5.044a28.043,28.043,0,0,1,5.571,3.46c.6.489,1.234.93,1.858,1.385.372.271.445.251.728-.144.182-.254.176-.34-.058-.544-.14-.122-.288-.233-.434-.348-1.215-.954-2.434-1.9-3.645-2.864a6.014,6.014,0,0,1-.749-.687q-4.951-5.523-9.892-11.056c-.041-.046-.076-.1-.114-.146l.367-.075q1.557,1.37,3.115,2.739c.253.221.52.427.781.64a.115.115,0,0,0,.132.122c.244.234.481.477.734.7q2.9,2.587,5.816,5.165a11.271,11.271,0,0,1,1.525,1.608c.8,1.055,1.639,2.088,2.461,3.13.115.145.224.3.348.432a.549.549,0,0,0,.916-.1.293.293,0,0,0,0-.256c-.13-.209-.284-.4-.432-.6-.889-1.185-1.784-2.365-2.666-3.556a7.174,7.174,0,0,1-.648-1.009q-3.182-6.272-6.346-12.553c-.042-.082-.071-.171-.106-.256a.454.454,0,0,1,.277-.256q2.244,3.394,4.488,6.789c1.121,1.7,2.234,3.4,3.359,5.1a7.472,7.472,0,0,1,.657,1.217q.922,2.17,1.858,4.333a3.22,3.22,0,0,0,.248.492c.09.137.216.054.326.005a1.094,1.094,0,0,1,.359-.158c.282-.109.161-.252.034-.4-.076-.233-.139-.47-.229-.7-.315-.8-.615-1.61-.963-2.4a21.439,21.439,0,0,1-1.384-4.484c-.85-4.253-1.749-8.5-2.628-12.745l.346-.008q1.578,4.739,3.155,9.478c.321.966.6,1.948.965,2.9a20.008,20.008,0,0,1,1.074,4.768c.121.948.261,1.894.4,2.841a.525.525,0,0,0,.875.366c.126-.085.109-.213.1-.331-.109-.981-.193-1.966-.343-2.941a21.81,21.81,0,0,1-.168-5.533c.127-1.257.158-2.525.227-3.788.149-2.711.291-5.423.444-8.134.031-.554.1-1.106.148-1.659l.164.006c.131,2.157.266,4.315.392,6.472.15,2.559.25,5.121.455,7.675a21.115,21.115,0,0,1-.154,4.522c-.156,1.163-.291,2.328-.432,3.492a.592.592,0,0,0,.034.175c.887.245.887.243,1-.577q.356-2.475.721-4.948a4.328,4.328,0,0,1,.17-.717q2.354-7.119,4.715-14.235l.331-.007q-1.506,7.28-3.017,14.559a7.652,7.652,0,0,1-.38,1.232c-.552,1.4-1.129,2.8-1.683,4.2a1.5,1.5,0,0,0-.236.781c-.051.137.027.155.134.146a1.1,1.1,0,0,0,.157.1c.446.185.477.182.64-.188.36-.817.735-1.628,1.056-2.46a26.492,26.492,0,0,1,2.824-5.273c2.15-3.191,4.242-6.421,6.36-9.634.152-.231.312-.457.469-.685l.235.227c-.676,1.353-1.347,2.708-2.028,4.058-1.486,2.95-2.982,5.9-4.462,8.849a9.014,9.014,0,0,1-.878,1.412c-.859,1.132-1.71,2.27-2.563,3.406-.13.173-.263.344-.385.522-.177.259-.162.337.084.533.072.058.151.107.225.163a.262.262,0,0,0,.4-.064c.141-.163.276-.333.409-.5.881-1.115,1.769-2.225,2.636-3.35a9.764,9.764,0,0,1,1.269-1.344q4.888-4.335,9.766-8.682c.23-.2.443-.427.664-.641a.148.148,0,0,0,.157-.145l.754-.573.254.03c-.751.856-1.5,1.716-2.253,2.565q-2.119,2.379-4.247,4.751c-.2.228-.389.473-.582.711-.077,0-.116.042-.109.121l-2.81,3.079q-.5.548-1,1.1c-.08-.009-.12.031-.128.108a27.2,27.2,0,0,0-2.639,2.064.179.179,0,0,0-.186.154,6.311,6.311,0,0,0-1.333,1.04c-.359.258-.359.258.03.624.055.162.164.291.334.213a3.146,3.146,0,0,0,.533-.362q1.855-1.382,3.707-2.768a6.714,6.714,0,0,1,1.014-.64q6.492-3.249,12.978-6.51c.11-.055.224-.1.336-.151l.219.223q-2.863,1.884-5.726,3.766-3.292,2.159-6.587,4.314a7.98,7.98,0,0,1-1.3.7c-1.367.572-2.725,1.162-4.087,1.746-.2.085-.4.163-.594.259-.224.111-.237.2-.108.535a1.312,1.312,0,0,0,.088.163c.025.184.143.236.307.206a.584.584,0,0,0,.377-.2,1.656,1.656,0,0,0,.748-.278.144.144,0,0,0,.18-.093,1.7,1.7,0,0,0,.746-.275.148.148,0,0,0,.183-.1,15.9,15.9,0,0,0,1.951-.725c.653-.234,1.308-.465,1.962-.7.082.049.141.016.19-.052l.537-.084a.393.393,0,0,0,.381-.1,4.12,4.12,0,0,0,1.284-.245.453.453,0,0,0,.427-.111,1.439,1.439,0,0,0,.695-.117.179.179,0,0,0,.224-.071l.512-.082a.422.422,0,0,0,.4-.109,18.081,18.081,0,0,0,2.522-.468c1.89-.375,3.773-.784,5.66-1.176.21-.043.423-.066.635-.1a.342.342,0,0,0,.425-.107l.338-.051c.136.062.326.023.4.211q-4.485,1.484-8.969,2.967c-1.349.446-2.713.849-4.045,1.339a18.212,18.212,0,0,1-3.966.889c-1.133.149-2.263.317-3.393.491-.414.064-.441.128-.393.558.044.394.114.455.549.4,1.166-.136,2.332-.272,3.5-.424a16.4,16.4,0,0,1,3.782-.162c1.505.15,3.023.17,4.534.257,2.715.156,5.429.321,8.143.478.863.05,1.728.086,2.729.135l-1.2.286a9.773,9.773,0,0,0-1.83.077,3.1,3.1,0,0,0-1.349.106,13.342,13.342,0,0,0-2.18.093,2.474,2.474,0,0,0-1.15.1,4.622,4.622,0,0,0-1.252.052,5.735,5.735,0,0,0-1.909.132,12.225,12.225,0,0,0-2.182.093,2.363,2.363,0,0,0-1.153.093,2.21,2.21,0,0,0-.874.038l-.183.007-.38.016-2.4-.024-.338-.031a.721.721,0,0,0-.577-.095,3.235,3.235,0,0,0-1.069-.1,1.67,1.67,0,0,0-.982-.136l-.515-.046a.76.76,0,0,0-.59-.1,1.758,1.758,0,0,0-.755-.066c-.173-.054-.309-.048-.3.187q-.018.185-.036.37c-.048.153-.066.29.157.3a2.1,2.1,0,0,0,.853.1.18.18,0,0,0,.237.059,2.984,2.984,0,0,0,1.057.126.447.447,0,0,0,.433.09,2.212,2.212,0,0,0,.871.1.187.187,0,0,0,.239.066,2.353,2.353,0,0,0,.918.1.363.363,0,0,0,.374.077l2.025.484a.174.174,0,0,0,.213.094q2.891.967,5.783,1.933,3.331,1.111,6.663,2.216A.341.341,0,0,0,162.456,442.48Z" transform="translate(-86.257 -328.433)"/>
    <path id="Path_2502" data-name="Path 2502" class="cls-14" d="M127.235,622.932c.054.232.254.2.42.236a14.539,14.539,0,0,1-1.99,1.072c-.264.147-.542.269-.813.4l-.2-.008A13.639,13.639,0,0,1,127.235,622.932Z" transform="translate(-100.643 -502.556)"/>
    <path id="Path_2503" data-name="Path 2503" class="cls-14" d="M151.167,655.832a5.18,5.18,0,0,1-1.489,1.289l.01.01a4.521,4.521,0,0,1,1.272-1.508Z" transform="translate(-120.833 -528.93)"/>
    <path id="Path_2504" data-name="Path 2504" class="cls-15" d="M156.519,652.526l-.207-.209a3.349,3.349,0,0,1,.752-.792l.432.08A5.133,5.133,0,0,1,156.519,652.526Z" transform="translate(-126.185 -525.623)"/>
    <path id="Path_2505" data-name="Path 2505" class="cls-10" d="M235.9,579.972a.094.094,0,0,1,.075-.115l.532-.012c.445.3.445.3,0,.756Z" transform="translate(-190.395 -467.795)"/>
    <path id="Path_2506" data-name="Path 2506" class="cls-14" d="M183.782,678.615l.207.207c-.181.365-.282.792-.738.942A1.987,1.987,0,0,1,183.782,678.615Z" transform="translate(-147.919 -547.479)"/>
    <path id="Path_2507" data-name="Path 2507" class="cls-10" d="M168.776,644.293a2.048,2.048,0,0,1,.728-.659C169.449,644.228,169.428,644.246,168.776,644.293Z" transform="translate(-136.24 -519.257)"/>
    <path id="Path_2508" data-name="Path 2508" class="cls-10" d="M177.419,636.614a2,2,0,0,1,.728-.659C178.091,636.548,178.071,636.566,177.419,636.614Z" transform="translate(-143.213 -513.062)"/>
    <path id="Path_2509" data-name="Path 2509" class="cls-14" d="M182.485,684.485a.286.286,0,0,1-.2.387C182.287,684.709,182.274,684.541,182.485,684.485Z" transform="translate(-147.141 -552.214)"/>
    <path id="Path_2510" data-name="Path 2510" class="cls-14" d="M149.534,663.375l-.035.052.044-.042Z" transform="translate(-120.688 -535.183)"/>
    <path id="Path_2511" data-name="Path 2511" class="cls-14" d="M395.7,515.4c-.069-.188-.26-.148-.4-.211a10.366,10.366,0,0,1,2.432-.516A5.78,5.78,0,0,1,395.7,515.4Z" transform="translate(-318.996 -415.217)"/>
    <path id="Path_2512" data-name="Path 2512" class="cls-14" d="M110.458,515.09l-.177.168a4.384,4.384,0,0,1-1.419-.491A3.422,3.422,0,0,1,110.458,515.09Z" transform="translate(-87.905 -415.294)"/>
    <path id="Path_2513" data-name="Path 2513" class="cls-14" d="M294.658,692.2l.339.012a9.831,9.831,0,0,1,.446,2.045c-.048-.033-.121-.055-.142-.1A7.4,7.4,0,0,1,294.658,692.2Z" transform="translate(-237.796 -558.436)"/>
    <path id="Path_2514" data-name="Path 2514" class="cls-14" d="M258.008,701.781a1.247,1.247,0,0,0,.176-.007,2.531,2.531,0,0,1-.149,1.418A8.765,8.765,0,0,1,258.008,701.781Z" transform="translate(-208.201 -566.162)"/>
    <path id="Path_2515" data-name="Path 2515" class="cls-14" d="M128.245,479.06c-.156.032-.348,0-.4.218a12.746,12.746,0,0,1-2.04-1.292c-.086-.061-.119-.2-.177-.3.7.344,1.4.683,2.1,1.036C127.9,478.818,128.122,478.869,128.245,479.06Z" transform="translate(-101.428 -385.379)"/>
    <path id="Path_2516" data-name="Path 2516" class="cls-14" d="M218.855,691.184l.31.183a10.018,10.018,0,0,1-.605,1.9c-.026.072-.132.116-.2.173A15.622,15.622,0,0,1,218.855,691.184Z" transform="translate(-176.24 -557.619)"/>
    <path id="Path_2517" data-name="Path 2517" class="cls-14" d="M382.126,478.883l-.219-.223a11.555,11.555,0,0,1,1.882-1l-.037.264C383.169,478.176,382.739,478.685,382.126,478.883Z" transform="translate(-308.185 -385.359)"/>
    <path id="Path_2518" data-name="Path 2518" class="cls-14" d="M361.962,446.688l-.254-.03a5.224,5.224,0,0,1,1.143-1.068.114.114,0,0,0,.124,0A4.061,4.061,0,0,1,361.962,446.688Z" transform="translate(-291.89 -359.483)"/>
    <path id="Path_2519" data-name="Path 2519" class="cls-7" d="M282.855,533.1c-.389-.366-.389-.366-.03-.624Z" transform="translate(-228.036 -429.576)"/>
    <path id="Path_2520" data-name="Path 2520" class="cls-7" d="M290.834,526.445a.179.179,0,0,1,.185-.154Z" transform="translate(-234.711 -424.59)"/>
    <path id="Path_2521" data-name="Path 2521" class="cls-7" d="M305.449,515.156c.008-.077.047-.117.128-.108A.2.2,0,0,1,305.449,515.156Z" transform="translate(-246.502 -415.518)"/>
    <path id="Path_2522" data-name="Path 2522" class="cls-7" d="M325.8,492.934c-.007-.079.032-.117.109-.121A.2.2,0,0,1,325.8,492.934Z" transform="translate(-262.924 -397.581)"/>
    <path id="Path_2523" data-name="Path 2523" class="cls-14" d="M295.107,408.168l-.331.007a7.67,7.67,0,0,1,.434-1.46c.052-.172.093-.346.14-.519a.316.316,0,0,0,.145-.076A6.089,6.089,0,0,1,295.107,408.168Z" transform="translate(-237.892 -327.641)"/>
    <path id="Path_2524" data-name="Path 2524" class="cls-14" d="M329.445,427.365l-.235-.227a2.793,2.793,0,0,1,.512-.857.187.187,0,0,1,.232-.077A1.805,1.805,0,0,1,329.445,427.365Z" transform="translate(-265.671 -343.833)"/>
    <path id="Path_2525" data-name="Path 2525" class="cls-14" d="M333.077,424.325c.038.18.045.344-.194.385A.251.251,0,0,1,333.077,424.325Z" transform="translate(-268.608 -342.328)"/>
    <path id="Path_2526" data-name="Path 2526" class="cls-12" d="M269.048,524.365c-.108.01-.185-.01-.134-.146Z" transform="translate(-217.014 -422.918)"/>
    <path id="Path_2527" data-name="Path 2527" class="cls-14" d="M151.355,447.851l-.367.075a7.878,7.878,0,0,1-1.36-1.517.75.75,0,0,1,.478.247A8.966,8.966,0,0,1,151.355,447.851Z" transform="translate(-120.792 -360.143)"/>
    <path id="Path_2528" data-name="Path 2528" class="cls-14" d="M148.823,445.582l.175.178Z" transform="translate(-120.143 -359.477)"/>
    <path id="Path_2529" data-name="Path 2529" class="cls-15" d="M354.789,650.944l.266-.262A9.009,9.009,0,0,1,356.288,652l-.326.028A7.589,7.589,0,0,1,354.789,650.944Z" transform="translate(-286.308 -524.943)"/>
    <path id="Path_2530" data-name="Path 2530" class="cls-14" d="M382.822,626.219l.206-.207c.491.142.826.56,1.3.736a.248.248,0,0,1-.181.228A10.142,10.142,0,0,1,382.822,626.219Z" transform="translate(-308.923 -505.041)"/>
    <path id="Path_2531" data-name="Path 2531" class="cls-14" d="M360.857,657.554l.326-.028a2.236,2.236,0,0,1,.8.957A2.5,2.5,0,0,1,360.857,657.554Z" transform="translate(-291.203 -530.465)"/>
    <path id="Path_2532" data-name="Path 2532" class="cls-10" d="M348.274,641.09a1.163,1.163,0,0,1-.485-.529C348.226,640.6,348.226,640.6,348.274,641.09Z" transform="translate(-280.66 -516.778)"/>
    <path id="Path_2533" data-name="Path 2533" class="cls-10" d="M331.958,622.848a1.145,1.145,0,0,1-.484-.529C331.91,622.361,331.91,622.361,331.958,622.848Z" transform="translate(-267.498 -502.061)"/>
    <path id="Path_2534" data-name="Path 2534" class="cls-7" d="M284.439,572.5c.1-.2.213-.23.341-.022Z" transform="translate(-229.552 -461.734)"/>
    <path id="Path_2535" data-name="Path 2535" class="cls-14" d="M329.53,677.693c-.073-.044-.17-.072-.216-.135a10.052,10.052,0,0,1-1.092-1.724.462.462,0,0,0,.273-.247A7.446,7.446,0,0,1,329.53,677.693Z" transform="translate(-264.874 -545.037)"/>
    <path id="Path_2536" data-name="Path 2536" class="cls-12" d="M276.513,580.769c-.266-.268-.266-.268.011-.49Q276.519,580.524,276.513,580.769Z" transform="translate(-222.998 -468.145)"/>
    <path id="Path_2537" data-name="Path 2537" class="cls-12" d="M278.146,578.874c.269-.295.269-.295.488-.018Z" transform="translate(-224.475 -466.831)"/>
    <path id="Path_2538" data-name="Path 2538" class="cls-13" d="M328,674.832a.462.462,0,0,1-.273.247c-.055-.127-.238-.255,0-.378C327.912,674.565,327.937,674.74,328,674.832Z" transform="translate(-264.383 -544.281)"/>
    <path id="Path_2539" data-name="Path 2539" class="cls-14" d="M335.128,686.783a.493.493,0,0,1-.192-.381C335.09,686.483,335.082,686.646,335.128,686.783Z" transform="translate(-270.291 -553.76)"/>
    <path id="Path_2540" data-name="Path 2540" class="cls-14" d="M184.266,425.987a.454.454,0,0,0-.277.256,7.126,7.126,0,0,1-.876-1.661c-.031-.07.011-.172.02-.259A5.436,5.436,0,0,1,184.266,425.987Z" transform="translate(-147.798 -342.325)"/>
    <path id="Path_2541" data-name="Path 2541" class="cls-14" d="M220.109,411.418l-.346.008a2.539,2.539,0,0,1-.21-1.5A3.123,3.123,0,0,1,220.109,411.418Z" transform="translate(-177.169 -330.709)"/>
    <path id="Path_2542" data-name="Path 2542" class="cls-14" d="M218.433,407.03l.239.047q.011.264.022.529a.2.2,0,0,1-.174-.157C218.492,407.309,218.462,407.17,218.433,407.03Z" transform="translate(-176.301 -328.375)"/>
    <path id="Path_2543" data-name="Path 2543" class="cls-12" d="M247.615,522.874c.127.144.248.287-.034.4Q247.6,523.072,247.615,522.874Z" transform="translate(-199.817 -421.833)"/>
    <path id="Path_2544" data-name="Path 2544" class="cls-14" d="M181.521,421.823c-.15-.088-.16-.246-.2-.391A.387.387,0,0,1,181.521,421.823Z" transform="translate(-146.362 -339.994)"/>
    <path id="Path_2545" data-name="Path 2545" class="cls-12" d="M245.916,525.2a.159.159,0,0,1-.193.1Z" transform="translate(-198.318 -423.713)"/>
    <path id="Path_2546" data-name="Path 2546" class="cls-14" d="M182.485,423.567c-.16.028-.183-.082-.2-.2C182.429,423.357,182.474,423.445,182.485,423.567Z" transform="translate(-147.139 -341.556)"/>
    <path id="Path_2547" data-name="Path 2547" class="cls-12" d="M178.861,471.48a.115.115,0,0,1-.132-.122Z" transform="translate(-144.27 -380.272)"/>
    <path id="Path_2548" data-name="Path 2548" class="cls-7" d="M288.94,543.392a.584.584,0,0,1-.377.2c-.165.03-.282-.022-.307-.206Z" transform="translate(-232.631 -438.38)"/>
    <path id="Path_2549" data-name="Path 2549" class="cls-7" d="M325.807,530.949a.392.392,0,0,1-.381.1A.4.4,0,0,1,325.807,530.949Z" transform="translate(-262.619 -428.342)"/>
    <path id="Path_2550" data-name="Path 2550" class="cls-7" d="M334.47,529.074a.453.453,0,0,1-.427.112A.406.406,0,0,1,334.47,529.074Z" transform="translate(-269.571 -426.824)"/>
    <path id="Path_2551" data-name="Path 2551" class="cls-7" d="M344.054,527.133a.423.423,0,0,1-.4.109A.406.406,0,0,1,344.054,527.133Z" transform="translate(-277.324 -425.261)"/>
    <path id="Path_2552" data-name="Path 2552" class="cls-14" d="M391.781,517.519a.343.343,0,0,1-.425.107A.388.388,0,0,1,391.781,517.519Z" transform="translate(-315.808 -417.496)"/>
    <path id="Path_2553" data-name="Path 2553" class="cls-7" d="M295.851,541.507a.144.144,0,0,1-.18.093Z" transform="translate(-238.614 -436.866)"/>
    <path id="Path_2554" data-name="Path 2554" class="cls-7" d="M321.851,531.958c-.049.069-.109.1-.19.053Z" transform="translate(-259.581 -429.162)"/>
    <path id="Path_2555" data-name="Path 2555" class="cls-7" d="M340.072,528.163a.179.179,0,0,1-.224.071Z" transform="translate(-274.254 -426.1)"/>
    <path id="Path_2556" data-name="Path 2556" class="cls-7" d="M300.648,539.59a.148.148,0,0,1-.183.1Z" transform="translate(-242.481 -435.319)"/>
    <path id="Path_2557" data-name="Path 2557" class="cls-12" d="M357.153,454.086a.148.148,0,0,1-.157.145Z" transform="translate(-288.088 -366.338)"/>
    <path id="Path_2558" data-name="Path 2558" class="cls-14" d="M258.2,401.723l-.164-.006a5.909,5.909,0,0,1,.028-1.289,1.1,1.1,0,0,1,.125.04A6.642,6.642,0,0,1,258.2,401.723Z" transform="translate(-208.219 -323.048)"/>
    <path id="Path_2559" data-name="Path 2559" class="cls-14" d="M392.453,590.616c.192-.08.468.068.586-.215a9.126,9.126,0,0,1,2.256.725,1.881,1.881,0,0,0,.264.064.192.192,0,0,0,.043.091c-.753-.133-1.505-.267-2.259-.4-.271-.047-.544-.083-.816-.125Q392.493,590.687,392.453,590.616Z" transform="translate(-316.693 -476.311)"/>
    <path id="Path_2560" data-name="Path 2560" class="cls-7" d="M353.212,583.762a1.083,1.083,0,0,1,.758.165C353.706,583.924,353.42,584.02,353.212,583.762Z" transform="translate(-285.035 -470.949)"/>
    <path id="Path_2561" data-name="Path 2561" class="cls-7" d="M376.249,588.543a1.106,1.106,0,0,1,.768.165C376.749,588.709,376.46,588.807,376.249,588.543Z" transform="translate(-303.621 -474.806)"/>
    <path id="Path_2562" data-name="Path 2562" class="cls-7" d="M330.174,578.974a.787.787,0,0,1,.626.143C330.575,579.142,330.344,579.193,330.174,578.974Z" transform="translate(-266.449 -467.084)"/>
    <path id="Path_2563" data-name="Path 2563" class="cls-7" d="M367.623,586.7a.728.728,0,0,1,.6.138C368.008,586.862,367.787,586.906,367.623,586.7Z" transform="translate(-296.662 -473.317)"/>
    <path id="Path_2564" data-name="Path 2564" class="cls-7" d="M382.034,589.651a.692.692,0,0,1,.569.135C382.4,589.8,382.19,589.838,382.034,589.651Z" transform="translate(-308.288 -475.696)"/>
    <path id="Path_2565" data-name="Path 2565" class="cls-7" d="M321.549,577.143a.709.709,0,0,1,.581.137C321.921,577.3,321.708,577.336,321.549,577.143Z" transform="translate(-259.491 -465.606)"/>
    <path id="Path_2566" data-name="Path 2566" class="cls-7" d="M345.57,582.063a.419.419,0,0,1,.4.109A.4.4,0,0,1,345.57,582.063Z" transform="translate(-278.87 -469.575)"/>
    <path id="Path_2567" data-name="Path 2567" class="cls-7" d="M350.38,583.065a.407.407,0,0,1,.39.1A.4.4,0,0,1,350.38,583.065Z" transform="translate(-282.751 -470.383)"/>
    <path id="Path_2568" data-name="Path 2568" class="cls-7" d="M327.348,578.292a.4.4,0,0,1,.38.1A.4.4,0,0,1,327.348,578.292Z" transform="translate(-264.169 -466.532)"/>
    <path id="Path_2569" data-name="Path 2569" class="cls-7" d="M295.615,567.5a.4.4,0,0,1,.378.16A.368.368,0,0,1,295.615,567.5Z" transform="translate(-238.568 -457.836)"/>
    <path id="Path_2570" data-name="Path 2570" class="cls-7" d="M373.412,587.835a.418.418,0,0,1,.4.107A.4.4,0,0,1,373.412,587.835Z" transform="translate(-301.332 -474.231)"/>
    <path id="Path_2571" data-name="Path 2571" class="cls-7" d="M335.959,580.091a.444.444,0,0,1,.426.111A.4.4,0,0,1,335.959,580.091Z" transform="translate(-271.116 -467.984)"/>
    <path id="Path_2572" data-name="Path 2572" class="cls-7" d="M359,584.868a.454.454,0,0,1,.437.113A.409.409,0,0,1,359,584.868Z" transform="translate(-289.702 -471.837)"/>
    <path id="Path_2573" data-name="Path 2573" class="cls-7" d="M387.826,590.808a.2.2,0,0,1,.243.077Z" transform="translate(-312.961 -476.629)"/>
    <path id="Path_2574" data-name="Path 2574" class="cls-7" d="M391.791,591.508c.027.047.052.094.075.143a.234.234,0,0,1-.234-.113A.281.281,0,0,1,391.791,591.508Z" transform="translate(-316.032 -477.203)"/>
    <path id="Path_2575" data-name="Path 2575" class="cls-7" d="M318.751,576.519a.151.151,0,0,1,.206.062Z" transform="translate(-257.234 -465.097)"/>
    <path id="Path_2576" data-name="Path 2576" class="cls-7" d="M341.776,581.285a.164.164,0,0,1,.217.066Z" transform="translate(-275.809 -468.942)"/>
    <path id="Path_2577" data-name="Path 2577" class="cls-7" d="M364.8,586.045a.185.185,0,0,1,.231.073Z" transform="translate(-294.382 -472.785)"/>
    <path id="Path_2578" data-name="Path 2578" class="cls-14" d="M110.564,590.368c.115.291.4.136.588.219-.029.047-.056.1-.081.144-.858.152-1.716.3-2.572.459a1.122,1.122,0,0,1-.619,0l.03,0c.739-.251,1.475-.507,2.216-.751A2.734,2.734,0,0,1,110.564,590.368Z" transform="translate(-87.112 -476.284)"/>
    <path id="Path_2579" data-name="Path 2579" class="cls-9" d="M183.811,579.11a.806.806,0,0,1,.638-.145C184.276,579.188,184.039,579.13,183.811,579.11Z" transform="translate(-148.37 -467.078)"/>
    <path id="Path_2580" data-name="Path 2580" class="cls-9" d="M160.716,583.894a.81.81,0,0,1,.649-.149C161.19,583.975,160.948,583.912,160.716,583.894Z" transform="translate(-129.738 -470.935)"/>
    <path id="Path_2581" data-name="Path 2581" class="cls-9" d="M146.514,586.938a.438.438,0,0,1,.418-.112A.419.419,0,0,1,146.514,586.938Z" transform="translate(-118.28 -473.418)"/>
    <path id="Path_2582" data-name="Path 2582" class="cls-9" d="M192.688,577.384a.419.419,0,0,1,.4-.109A.413.413,0,0,1,192.688,577.384Z" transform="translate(-155.531 -465.713)"/>
    <path id="Path_2583" data-name="Path 2583" class="cls-9" d="M187.932,578.377a.406.406,0,0,1,.387-.1A.415.415,0,0,1,187.932,578.377Z" transform="translate(-151.694 -466.517)"/>
    <path id="Path_2584" data-name="Path 2584" class="cls-9" d="M179.062,580.19a.458.458,0,0,1,.436-.113A.421.421,0,0,1,179.062,580.19Z" transform="translate(-144.538 -467.972)"/>
    <path id="Path_2585" data-name="Path 2585" class="cls-9" d="M137.017,588.912a.421.421,0,0,1,.4-.108A.413.413,0,0,1,137.017,588.912Z" transform="translate(-110.618 -475.014)"/>
    <path id="Path_2586" data-name="Path 2586" class="cls-9" d="M132.262,589.9a.4.4,0,0,1,.385-.106A.413.413,0,0,1,132.262,589.9Z" transform="translate(-106.782 -475.809)"/>
    <path id="Path_2587" data-name="Path 2587" class="cls-9" d="M169.6,582.158a.428.428,0,0,1,.408-.111A.415.415,0,0,1,169.6,582.158Z" transform="translate(-136.903 -469.563)"/>
    <path id="Path_2588" data-name="Path 2588" class="cls-9" d="M141.753,588.079a.156.156,0,0,1,.212-.064Z" transform="translate(-114.439 -474.371)"/>
    <path id="Path_2589" data-name="Path 2589" class="cls-9" d="M128.147,590.879a.221.221,0,0,1,.253-.081Z" transform="translate(-103.462 -476.623)"/>
    <path id="Path_2590" data-name="Path 2590" class="cls-9" d="M124.395,591.637q.038-.073.081-.144a.311.311,0,0,1,.162.029Z" transform="translate(-100.435 -477.191)"/>
    <path id="Path_2591" data-name="Path 2591" class="cls-9" d="M197.421,576.552a.176.176,0,0,1,.218-.072Z" transform="translate(-159.35 -465.07)"/>
    <path id="Path_2592" data-name="Path 2592" class="cls-9" d="M174.334,581.328a.182.182,0,0,1,.228-.072Z" transform="translate(-140.724 -468.922)"/>
    <path id="Path_2593" data-name="Path 2593" class="cls-9" d="M164.845,583.317a.135.135,0,0,1,.2-.055Z" transform="translate(-133.069 -470.532)"/>
    <path id="Path_2594" data-name="Path 2594" class="cls-9" d="M155.97,585.1a.225.225,0,0,1,.257-.084Z" transform="translate(-125.909 -471.962)"/>
    <path id="Path_2595" data-name="Path 2595" class="cls-9" d="M151.241,586.1a.2.2,0,0,1,.24-.077Z" transform="translate(-122.093 -472.766)"/>
    <path id="Path_2596" data-name="Path 2596" class="cls-8" d="M186.187,559.816l2.775-.013c-.107.055-.212.155-.32.157q-1.065.022-2.13,0C186.4,559.96,186.3,559.867,186.187,559.816Z" transform="translate(-150.286 -451.626)"/>
    <path id="Path_2597" data-name="Path 2597" class="cls-8" d="M154.522,557.936a3.828,3.828,0,0,1,1.558.12c-.384.008-.768.017-1.153.024A.541.541,0,0,1,154.522,557.936Z" transform="translate(-124.74 -450.102)"/>
    <path id="Path_2598" data-name="Path 2598" class="cls-8" d="M121.894,556.049a3.036,3.036,0,0,1,1.373.111A2.551,2.551,0,0,1,121.894,556.049Z" transform="translate(-98.418 -448.576)"/>
    <path id="Path_2599" data-name="Path 2599" class="cls-8" d="M174.728,559.031a1.753,1.753,0,0,1,.986.088C175.383,559.125,175.042,559.233,174.728,559.031Z" transform="translate(-141.042 -450.979)"/>
    <path id="Path_2600" data-name="Path 2600" class="cls-8" d="M141.125,557.1a1.179,1.179,0,0,1,.814.088C141.663,557.2,141.379,557.288,141.125,557.1Z" transform="translate(-113.932 -449.418)"/>
    <path id="Path_2601" data-name="Path 2601" class="cls-8" d="M210.785,558.07a1.179,1.179,0,0,1,.8-.121C211.347,558.177,211.059,558.081,210.785,558.07Z" transform="translate(-170.131 -450.116)"/>
    <path id="Path_2602" data-name="Path 2602" class="cls-8" d="M203,559.146a.466.466,0,0,1,.443-.085A.466.466,0,0,1,203,559.146Z" transform="translate(-163.846 -451.011)"/>
    <path id="Path_2603" data-name="Path 2603" class="cls-8" d="M213.539,562.67a.44.44,0,0,1-.423.088A.447.447,0,0,1,213.539,562.67Z" transform="translate(-172.012 -453.926)"/>
    <path id="Path_2604" data-name="Path 2604" class="cls-8" d="M200.1,564.592a.453.453,0,0,1-.427.089A.453.453,0,0,1,200.1,564.592Z" transform="translate(-161.164 -455.477)"/>
    <path id="Path_2605" data-name="Path 2605" class="cls-8" d="M218.54,557.306a.417.417,0,0,1,.4-.073A.453.453,0,0,1,218.54,557.306Z" transform="translate(-176.388 -449.535)"/>
    <path id="Path_2606" data-name="Path 2606" class="cls-8" d="M186.427,568.41a.151.151,0,0,1-.191.088Z" transform="translate(-150.326 -458.57)"/>
    <path id="Path_2607" data-name="Path 2607" class="cls-8" d="M183.549,569.363a.143.143,0,0,1-.186.086Z" transform="translate(-148.008 -459.339)"/>
    <path id="Path_2608" data-name="Path 2608" class="cls-8" d="M225.524,556.792c.144-.043.236,0,.262.157A.3.3,0,0,1,225.524,556.792Z" transform="translate(-182.022 -449.185)"/>
    <path id="Path_2609" data-name="Path 2609" class="cls-8" d="M192.189,566.5a.158.158,0,0,1-.2.09Z" transform="translate(-154.969 -457.03)"/>
    <path id="Path_2610" data-name="Path 2610" class="cls-8" d="M180.678,570.316a.133.133,0,0,1-.18.079Z" transform="translate(-145.697 -460.107)"/>
    <path id="Path_2611" data-name="Path 2611" class="cls-8" d="M177.8,571.271a.126.126,0,0,1-.175.076Z" transform="translate(-143.38 -460.878)"/>
    <path id="Path_2612" data-name="Path 2612" class="cls-8" d="M195.079,565.565a.174.174,0,0,1-.21.088Z" transform="translate(-157.291 -456.275)"/>
    <path id="Path_2613" data-name="Path 2613" class="cls-8" d="M189.311,567.457a.152.152,0,0,1-.194.088Z" transform="translate(-152.65 -457.801)"/>
    <path id="Path_2614" data-name="Path 2614" class="cls-8" d="M207.616,563.69a.165.165,0,0,1-.225.058Z" transform="translate(-167.393 -454.762)"/>
    <path id="Path_2615" data-name="Path 2615" class="cls-8" d="M221.076,561.776a.16.16,0,0,1-.224.05Z" transform="translate(-178.253 -453.218)"/>
    <path id="Path_2616" data-name="Path 2616" class="cls-8" d="M226.635,560.713c.03.108-.013.135-.112.1A.169.169,0,0,1,226.635,560.713Z" transform="translate(-182.828 -452.36)"/>
    <path id="Path_2617" data-name="Path 2617" class="cls-7" d="M316.734,559.812l2.4.024a1.025,1.025,0,0,1-.33.136c-.554.015-1.108.01-1.662.01A.517.517,0,0,1,316.734,559.812Z" transform="translate(-255.606 -451.633)"/>
    <path id="Path_2618" data-name="Path 2618" class="cls-7" d="M353.859,558.03a5.735,5.735,0,0,1,1.909-.132.6.6,0,0,1-.489.155Z" transform="translate(-285.557 -450.073)"/>
    <path id="Path_2619" data-name="Path 2619" class="cls-7" d="M387.448,556.192a3.1,3.1,0,0,1,1.349-.106A2.529,2.529,0,0,1,387.448,556.192Z" transform="translate(-312.656 -448.607)"/>
    <path id="Path_2620" data-name="Path 2620" class="cls-7" d="M336.6,559.116a2.361,2.361,0,0,1,1.153-.093A2.011,2.011,0,0,1,336.6,559.116Z" transform="translate(-271.632 -450.974)"/>
    <path id="Path_2621" data-name="Path 2621" class="cls-7" d="M370.217,557.2a2.472,2.472,0,0,1,1.15-.1A1.985,1.985,0,0,1,370.217,557.2Z" transform="translate(-298.754 -449.432)"/>
    <path id="Path_2622" data-name="Path 2622" class="cls-7" d="M301.384,557.886a1.669,1.669,0,0,1,.982.136C302.032,558.023,301.68,558.157,301.384,557.886Z" transform="translate(-243.223 -450.067)"/>
    <path id="Path_2623" data-name="Path 2623" class="cls-7" d="M295.667,557.119a.76.76,0,0,1,.59.1A.658.658,0,0,1,295.667,557.119Z" transform="translate(-238.61 -449.444)"/>
    <path id="Path_2624" data-name="Path 2624" class="cls-7" d="M312,559.073a.722.722,0,0,1,.577.094A.669.669,0,0,1,312,559.073Z" transform="translate(-251.787 -451.019)"/>
    <path id="Path_2625" data-name="Path 2625" class="cls-14" d="M393.006,589.548a.343.343,0,0,1-.412-.141A.384.384,0,0,1,393.006,589.548Z" transform="translate(-316.807 -475.501)"/>
    <path id="Path_2626" data-name="Path 2626" class="cls-7" d="M290.038,560.042c-.224-.01-.205-.148-.158-.3A.3.3,0,0,1,290.038,560.042Z" transform="translate(-233.918 -451.577)"/>
    <path id="Path_2627" data-name="Path 2627" class="cls-7" d="M290.189,556.933c-.005-.235.131-.241.3-.187A.316.316,0,0,1,290.189,556.933Z" transform="translate(-234.191 -449.137)"/>
    <path id="Path_2628" data-name="Path 2628" class="cls-7" d="M315.047,564.617a.362.362,0,0,1-.374-.077A.423.423,0,0,1,315.047,564.617Z" transform="translate(-253.944 -455.438)"/>
    <path id="Path_2629" data-name="Path 2629" class="cls-7" d="M302.371,562.759a.447.447,0,0,1-.433-.09A.428.428,0,0,1,302.371,562.759Z" transform="translate(-243.67 -453.923)"/>
    <path id="Path_2630" data-name="Path 2630" class="cls-7" d="M331.131,559.826l.183-.007C331.257,559.917,331.2,559.923,331.131,559.826Z" transform="translate(-267.221 -451.639)"/>
    <path id="Path_2631" data-name="Path 2631" class="cls-7" d="M308.926,563.776a.187.187,0,0,1-.239-.066Z" transform="translate(-249.114 -454.778)"/>
    <path id="Path_2632" data-name="Path 2632" class="cls-7" d="M327.3,567.585a.174.174,0,0,1-.213-.094Z" transform="translate(-263.957 -457.828)"/>
    <path id="Path_2633" data-name="Path 2633" class="cls-7" d="M295.475,561.852a.18.18,0,0,1-.237-.059Z" transform="translate(-238.264 -453.231)"/>
    <path id="Path_2634" data-name="Path 2634" class="cls-12" d="M236.829,578.865l-.532.012C236.518,578.55,236.555,578.549,236.829,578.865Z" transform="translate(-190.713 -466.815)"/>
  </g>
</svg>
